<?xml version="1.0" encoding="UTF-8"?>
<!DOCTYPE svg PUBLIC "-//W3C//DTD SVG 1.1//EN" "http://www.w3.org/Graphics/SVG/1.1/DTD/svg11.dtd">
<!-- Creator: CorelDRAW X6 -->
<svg xmlns="http://www.w3.org/2000/svg" xml:space="preserve" width="540px" height="200px" version="1.1" style="shape-rendering:geometricPrecision; text-rendering:geometricPrecision; image-rendering:optimizeQuality; fill-rule:evenodd; clip-rule:evenodd"
viewBox="0 0 3810 1355"
 xmlns:xlink="http://www.w3.org/1999/xlink">
 <defs>
  <style type="text/css">
   <![CDATA[
    .fil3 {fill:black}
    .fil2 {fill:#1A1A1A}
    .fil1 {fill:black;fill-rule:nonzero}
    .fil4 {fill:#1A1A1A;fill-rule:nonzero}
    .fil0 {fill:#660066;fill-rule:nonzero}
   ]]>
  </style>
 </defs>
 <g id="Camada_x0020_1">
  <metadata id="CorelCorpID_0Corel-Layer"/>
  <g id="_635037136">
   <path class="fil0" d="M1363 837l17 0c2,32 13,57 32,75 19,19 44,28 75,28 30,0 55,-8 74,-24 19,-16 29,-36 29,-61 0,-22 -6,-40 -19,-52 -13,-12 -42,-24 -87,-37 -2,-1 -4,-1 -7,-2 -41,-11 -67,-22 -79,-33 -8,-8 -15,-16 -19,-27 -4,-10 -7,-21 -7,-33 0,-29 10,-51 30,-69 20,-17 46,-26 79,-26 34,0 62,10 83,29 21,19 32,45 33,78l-16 0c-1,-28 -10,-50 -28,-67 -18,-17 -43,-25 -73,-25 -28,0 -50,7 -67,22 -16,15 -25,34 -25,59 0,9 2,18 6,26 4,8 9,16 17,22 10,9 34,19 72,29 3,1 5,1 7,2 48,13 79,26 95,41 15,14 23,34 23,59 0,31 -11,57 -33,76 -22,19 -51,29 -87,29 -36,0 -64,-10 -86,-31 -22,-21 -34,-50 -37,-87zm309 110l0 -362 17 0 0 362 -17 0zm119 -16l70 0c27,0 49,-1 65,-4 16,-3 30,-7 43,-14 22,-11 38,-30 50,-55 11,-25 17,-56 17,-92 0,-31 -4,-57 -12,-79 -8,-22 -20,-41 -36,-55 -13,-11 -28,-19 -46,-24 -18,-5 -45,-7 -80,-7l-70 0 0 330zm-17 16l0 -362 83 0c31,0 54,1 72,4 17,3 32,7 45,14 26,13 46,33 60,61 14,28 20,62 20,102 0,41 -7,75 -21,103 -14,28 -33,48 -60,60 -13,6 -28,11 -47,13 -18,3 -41,4 -70,4l-83 0zm347 0l0 -362 221 0 0 16 -204 0 0 150 186 0 0 16 -186 0 0 165 209 0 0 16 -226 0zm267 -110l17 0c2,32 13,57 32,75 19,19 44,28 75,28 30,0 55,-8 74,-24 19,-16 29,-36 29,-61 0,-22 -6,-40 -19,-52 -13,-12 -42,-24 -87,-37 -2,-1 -4,-1 -7,-2 -41,-11 -67,-22 -79,-33 -8,-8 -15,-16 -19,-27 -4,-10 -7,-21 -7,-33 0,-29 10,-51 30,-69 20,-17 46,-26 79,-26 34,0 62,10 83,29 21,19 32,45 33,78l-16 0c-1,-28 -10,-50 -28,-67 -18,-17 -43,-25 -73,-25 -28,0 -50,7 -67,22 -16,15 -25,34 -25,59 0,9 2,18 6,26 4,8 9,16 17,22 10,9 34,19 72,29 3,1 5,1 7,2 48,13 79,26 95,41 15,14 23,34 23,59 0,31 -11,57 -33,76 -22,19 -51,29 -87,29 -36,0 -64,-10 -86,-31 -22,-21 -34,-50 -37,-87zm307 110l0 -362 17 0 0 160 228 0 0 -160 17 0 0 362 -17 0 0 -186 -228 0 0 186 -17 0zm348 -181c0,54 13,96 38,127 25,31 60,46 105,46 44,0 79,-15 105,-46 25,-31 38,-73 38,-127 0,-54 -13,-97 -38,-128 -25,-31 -60,-46 -105,-46 -44,0 -79,15 -105,46 -25,31 -38,74 -38,128zm-18 0c0,-59 14,-105 43,-139 28,-34 68,-50 117,-50 50,0 89,17 117,50 29,34 43,80 43,139 0,59 -14,105 -43,138 -28,34 -68,50 -118,50 -50,0 -89,-17 -117,-50 -29,-34 -43,-80 -43,-138zm447 181l-97 -362 17 0 88 331 88 -331 21 0 87 331 88 -331 17 0 -97 362 -17 0 -89 -338 -90 338 -17 0z"/>
   <path class="fil1" d="M1866 1203l32 -82 4 0 31 82 -4 0 -11 -28 -38 0 -11 28 -4 0zm16 -31l35 0 -18 -46 -18 46zm59 31l0 -82 4 0 51 75 0 -75 4 0 0 82 -4 0 -51 -75 0 75 -4 0zm108 0l0 -82 4 0 0 82 -4 0zm23 0l0 -82 4 0 51 75 0 -75 4 0 0 82 -4 0 -51 -75 0 75 -4 0zm140 -27c-1,9 -4,16 -9,21 -6,5 -13,8 -22,8 -11,0 -19,-4 -25,-11 -6,-7 -9,-18 -9,-31 0,-13 3,-24 9,-32 6,-8 15,-11 26,-11 8,0 15,2 21,7 6,5 9,11 10,19l-4 0c-1,-7 -4,-12 -9,-16 -5,-4 -11,-6 -19,-6 -9,0 -16,4 -22,11 -5,7 -8,17 -8,29 0,12 3,22 8,29 5,7 12,10 22,10 8,0 15,-2 20,-7 5,-5 8,-11 8,-19l4 0zm15 27l0 -82 27 0c10,0 17,2 22,5 4,3 7,9 7,16 0,5 -1,9 -4,13 -2,3 -6,6 -11,7 3,1 6,2 8,5 2,2 3,6 3,10 0,3 0,6 1,11 0,8 1,13 3,16l-4 0c-1,-2 -2,-6 -3,-14 0,-1 0,-2 0,-3 0,0 0,-1 0,-2 0,-8 -2,-13 -4,-15 -1,-2 -3,-3 -6,-4 -2,-1 -6,-1 -10,-1l-25 0 0 39 -4 0zm4 -42l25 0c7,0 13,-2 17,-5 4,-3 6,-7 6,-13 0,-3 0,-5 -1,-7 -1,-2 -2,-4 -3,-6 -2,-2 -4,-3 -7,-4 -3,-1 -7,-1 -13,-1l-23 0 0 36zm67 42l0 -82 50 0 0 4 -46 0 0 34 42 0 0 4 -42 0 0 37 47 0 0 4 -51 0zm68 -4l16 0c6,0 11,0 15,-1 4,-1 7,-2 10,-3 5,-3 9,-7 11,-12 3,-6 4,-13 4,-21 0,-7 -1,-13 -3,-18 -2,-5 -5,-9 -8,-12 -3,-3 -6,-4 -11,-5 -4,-1 -10,-2 -18,-2l-16 0 0 75zm-4 4l0 -82 19 0c7,0 12,0 16,1 4,1 7,2 10,3 6,3 10,8 14,14 3,6 5,14 5,23 0,9 -2,17 -5,23 -3,6 -8,11 -13,14 -3,1 -6,2 -11,3 -4,1 -9,1 -16,1l-19 0zm79 0l0 -82 4 0 0 82 -4 0zm23 0l0 -82 22 0c6,0 10,0 13,1 3,1 6,1 8,3 3,2 5,4 7,7 2,3 2,6 2,10 0,4 -1,8 -4,11 -2,3 -6,6 -10,7 6,1 11,4 14,7 3,3 5,8 5,14 0,4 -1,7 -2,10 -2,3 -4,6 -7,7 -2,1 -5,2 -8,3 -3,1 -8,1 -14,1l-25 0zm4 -44l19 0c9,0 15,-1 19,-4 4,-3 6,-7 6,-13 0,-6 -2,-10 -6,-13 -4,-3 -11,-4 -20,-4l-19 0 0 34zm0 41l20 0c5,0 9,0 12,0 3,0 5,-1 7,-2 3,-1 6,-4 7,-6 2,-3 3,-7 3,-11 0,-6 -2,-11 -7,-14 -4,-3 -12,-4 -22,-4l-20 0 0 38zm67 4l0 -82 4 0 0 78 43 0 0 4 -47 0zm58 0l0 -82 50 0 0 4 -46 0 0 34 42 0 0 4 -42 0 0 37 47 0 0 4 -51 0zm89 -25l4 0c0,1 0,1 0,2 0,1 0,1 0,1 0,7 1,12 4,16 3,3 7,5 13,5 6,0 10,-2 13,-5 3,-3 4,-10 4,-18l0 -57 4 0 0 58c0,9 -2,15 -5,20 -3,4 -9,6 -16,6 -6,0 -11,-2 -15,-6 -3,-4 -5,-10 -5,-17 0,-1 0,-2 0,-3 0,-1 0,-1 0,-2zm49 25l32 -82 4 0 31 82 -4 0 -11 -28 -38 0 -11 28 -4 0zm16 -31l35 0 -18 -46 -18 46zm76 31l-28 -82 4 0 26 76 26 -76 4 0 -28 82 -4 0zm29 0l32 -82 4 0 31 82 -4 0 -11 -28 -38 0 -11 28 -4 0zm16 -31l35 0 -18 -46 -18 46zm55 6l4 0c0,7 3,13 7,17 4,4 10,6 17,6 7,0 12,-2 17,-5 4,-4 6,-8 6,-14 0,-5 -1,-9 -4,-12 -3,-3 -9,-6 -20,-8 0,0 -1,0 -2,0 -9,-3 -15,-5 -18,-7 -2,-2 -3,-4 -4,-6 -1,-2 -1,-5 -1,-8 0,-6 2,-12 7,-16 4,-4 10,-6 18,-6 8,0 14,2 19,6 5,4 7,10 7,18l-4 0c0,-6 -2,-11 -6,-15 -4,-4 -10,-6 -16,-6 -6,0 -11,2 -15,5 -4,3 -6,8 -6,13 0,2 0,4 1,6 1,2 2,4 4,5 2,2 8,4 16,7 1,0 1,0 2,0 11,3 18,6 21,9 3,3 5,8 5,13 0,7 -2,13 -7,17 -5,4 -12,6 -20,6 -8,0 -15,-2 -20,-7 -5,-5 -8,-11 -8,-20zm132 -2c-1,9 -4,16 -9,21 -6,5 -13,8 -22,8 -11,0 -19,-4 -25,-11 -6,-7 -9,-18 -9,-31 0,-13 3,-24 9,-32 6,-8 15,-11 26,-11 8,0 15,2 21,7 6,5 9,11 10,19l-4 0c-1,-7 -4,-12 -9,-16 -5,-4 -11,-6 -19,-6 -9,0 -16,4 -22,11 -5,7 -8,17 -8,29 0,12 3,22 8,29 5,7 12,10 22,10 8,0 15,-2 20,-7 5,-5 8,-11 8,-19l4 0zm15 27l0 -82 27 0c10,0 17,2 22,5 4,3 7,9 7,16 0,5 -1,9 -4,13 -2,3 -6,6 -11,7 3,1 6,2 8,5 2,2 3,6 3,10 0,3 0,6 1,11 0,8 1,13 3,16l-4 0c-1,-2 -2,-6 -3,-14 0,-1 0,-2 0,-3 0,0 0,-1 0,-2 0,-8 -2,-13 -4,-15 -1,-2 -3,-3 -6,-4 -2,-1 -6,-1 -10,-1l-25 0 0 39 -4 0zm4 -42l25 0c7,0 13,-2 17,-5 4,-3 6,-7 6,-13 0,-3 0,-5 -1,-7 -1,-2 -2,-4 -3,-6 -2,-2 -4,-3 -7,-4 -3,-1 -7,-1 -13,-1l-23 0 0 36zm68 42l0 -82 4 0 0 82 -4 0zm45 -82c10,0 18,2 22,5 5,4 7,9 7,16 0,3 -1,6 -2,9 -1,3 -3,5 -5,7 -2,2 -5,4 -8,5 -3,1 -8,1 -15,1l-18 0 0 38 -4 0 0 -82 22 0zm-3 4l-16 0 0 37 16 0c6,0 10,0 13,0 2,0 5,-1 6,-2 3,-1 5,-3 7,-6 2,-3 3,-7 3,-11 0,-3 -1,-6 -2,-9 -1,-3 -3,-5 -6,-6 -2,-1 -4,-2 -7,-2 -3,0 -7,-1 -13,-1zm64 78l0 -78 -26 0 0 -4 55 0 0 4 -26 0 0 78 -4 0zm-1360 136l0 -82 4 0 0 82 -4 0zm23 0l0 -82 4 0 51 75 0 -75 4 0 0 82 -4 0 -51 -75 0 75 -4 0zm96 0l0 -78 -26 0 0 -4 55 0 0 4 -26 0 0 78 -4 0zm40 0l0 -82 50 0 0 4 -46 0 0 34 42 0 0 4 -42 0 0 37 47 0 0 4 -51 0zm65 0l0 -82 27 0c10,0 17,2 22,5 4,3 7,9 7,16 0,5 -1,9 -4,13 -2,3 -6,6 -11,7 3,1 6,2 8,5 2,2 3,6 3,10 0,3 0,6 1,11 0,8 1,13 3,16l-4 0c-1,-2 -2,-6 -3,-14 0,-1 0,-2 0,-3 0,0 0,-1 0,-2 0,-8 -2,-13 -4,-15 -1,-2 -3,-3 -6,-4 -2,-1 -6,-1 -10,-1l-25 0 0 39 -4 0zm4 -42l25 0c7,0 13,-2 17,-5 4,-3 6,-7 6,-13 0,-3 0,-5 -1,-7 -1,-2 -2,-4 -3,-6 -2,-2 -4,-3 -7,-4 -3,-1 -7,-1 -13,-1l-23 0 0 36zm57 42l32 -82 4 0 31 82 -4 0 -11 -28 -38 0 -11 28 -4 0zm16 -31l35 0 -18 -46 -18 46zm122 4c-1,9 -4,16 -9,21 -6,5 -13,8 -22,8 -11,0 -19,-4 -25,-11 -6,-7 -9,-18 -9,-31 0,-13 3,-24 9,-32 6,-8 15,-11 26,-11 8,0 15,2 21,7 6,5 9,11 10,19l-4 0c-1,-7 -4,-12 -9,-16 -5,-4 -11,-6 -19,-6 -9,0 -16,4 -22,11 -5,7 -8,17 -8,29 0,12 3,22 8,29 5,7 12,10 22,10 8,0 15,-2 20,-7 5,-5 8,-11 8,-19l4 0zm33 27l0 -78 -26 0 0 -4 55 0 0 4 -26 0 0 78 -4 0zm41 0l0 -82 4 0 0 82 -4 0zm42 0l-28 -82 4 0 26 76 26 -76 4 0 -28 82 -4 0zm41 0l0 -82 50 0 0 4 -46 0 0 34 42 0 0 4 -42 0 0 37 47 0 0 4 -51 0zm94 0l0 -82 4 0 0 36 52 0 0 -36 4 0 0 82 -4 0 0 -42 -52 0 0 42 -4 0zm78 0l0 -82 50 0 0 4 -46 0 0 34 42 0 0 4 -42 0 0 37 47 0 0 4 -51 0zm65 0l0 -82 4 0 0 78 43 0 0 4 -47 0zm80 -82c10,0 18,2 22,5 5,4 7,9 7,16 0,3 -1,6 -2,9 -1,3 -3,5 -5,7 -2,2 -5,4 -8,5 -3,1 -8,1 -15,1l-18 0 0 38 -4 0 0 -82 22 0zm-3 4l-16 0 0 37 16 0c6,0 10,0 13,0 2,0 5,-1 6,-2 3,-1 5,-3 7,-6 2,-3 3,-7 3,-11 0,-3 -1,-6 -2,-9 -1,-3 -3,-5 -6,-6 -2,-1 -4,-2 -7,-2 -3,0 -7,-1 -13,-1zm76 78l0 -82 4 0 0 78 43 0 0 4 -47 0zm58 0l0 -82 4 0 0 82 -4 0zm23 0l0 -82 22 0c6,0 10,0 13,1 3,1 6,1 8,3 3,2 5,4 7,7 2,3 2,6 2,10 0,4 -1,8 -4,11 -2,3 -6,6 -10,7 6,1 11,4 14,7 3,3 5,8 5,14 0,4 -1,7 -2,10 -2,3 -4,6 -7,7 -2,1 -5,2 -8,3 -3,1 -8,1 -14,1l-25 0zm4 -44l19 0c9,0 15,-1 19,-4 4,-3 6,-7 6,-13 0,-6 -2,-10 -6,-13 -4,-3 -11,-4 -20,-4l-19 0 0 34zm0 41l20 0c5,0 9,0 12,0 3,0 5,-1 6,-2 3,-1 6,-3 7,-6 2,-3 3,-7 3,-11 0,-6 -2,-11 -7,-14 -4,-3 -12,-4 -22,-4l-20 0 0 38zm67 4l0 -82 27 0c10,0 17,2 22,5 4,3 7,9 7,16 0,5 -1,9 -4,13 -2,3 -6,6 -11,7 3,1 6,2 8,5 2,2 3,6 3,10 0,3 0,6 1,11 0,8 1,13 3,16l-4 0c-1,-2 -2,-6 -3,-14 0,-1 0,-2 0,-3 0,0 0,-1 0,-2 0,-8 -2,-13 -4,-15 -1,-2 -3,-3 -6,-4 -2,-1 -6,-1 -10,-1l-25 0 0 39 -4 0zm4 -42l25 0c7,0 13,-2 17,-5 4,-3 6,-7 6,-13 0,-3 0,-5 -1,-7 -1,-2 -2,-4 -3,-6 -2,-2 -4,-3 -7,-4 -3,-1 -7,-1 -13,-1l-23 0 0 36zm57 42l32 -82 4 0 31 82 -4 0 -11 -28 -38 0 -11 28 -4 0zm16 -31l35 0 -18 -46 -18 46zm59 31l0 -82 27 0c10,0 17,2 22,5 4,3 7,9 7,16 0,5 -1,9 -4,13 -2,3 -6,6 -11,7 3,1 6,2 8,5 2,2 3,6 3,10 0,3 0,6 1,11 0,8 1,13 3,16l-4 0c-1,-2 -2,-6 -3,-14 0,-1 0,-2 0,-3 0,0 0,-1 0,-2 0,-8 -2,-13 -4,-15 -1,-2 -3,-3 -6,-4 -2,-1 -6,-1 -10,-1l-25 0 0 39 -4 0zm4 -42l25 0c7,0 13,-2 17,-5 4,-3 6,-7 6,-13 0,-3 0,-5 -1,-7 -1,-2 -2,-4 -3,-6 -2,-2 -4,-3 -7,-4 -3,-1 -7,-1 -13,-1l-23 0 0 36zm86 42l0 -36 -28 -46 4 0 26 42 26 -42 4 0 -28 46 0 36 -4 0z"/>
   <path class="fil2" d="M31 1055c2,27 8,78 27,101 1,-3 3,-4 4,-5 2,-1 4,0 6,3 2,3 4,8 6,14 2,5 3,11 4,18 3,4 7,8 11,12 3,-4 6,-6 10,-6 4,-1 8,0 12,3 4,3 8,8 12,14 4,6 7,13 10,21l0 3c5,3 9,6 14,9l0 -1c4,-4 9,-6 14,-7 5,-1 11,0 17,3 6,3 11,8 16,14 5,6 9,13 13,21 6,2 12,5 18,7 4,-4 9,-6 15,-8 6,-2 13,-1 20,1 7,2 14,6 20,11 6,5 12,12 17,19l0 0c7,2 14,4 21,5 5,-3 11,-6 18,-7 8,-2 17,-2 26,-1 9,2 18,5 26,10 8,4 15,10 21,16 7,1 14,2 22,3l0 -1c7,-5 15,-9 23,-12 9,-3 18,-4 28,-3 10,1 20,4 29,8 9,4 17,10 24,16l0 1c6,0 13,1 19,1l0 -1c14,-12 32,-19 52,-19 20,0 38,7 52,19l0 1c6,0 13,-1 19,-1l0 -2c7,-7 15,-12 24,-16 9,-4 19,-7 29,-8 10,-1 19,0 28,3 9,3 17,7 23,12l0 2c7,-1 14,-2 21,-3 6,-6 13,-12 21,-16 8,-5 17,-8 26,-10 9,-2 18,-1 26,1 7,2 13,4 18,8 7,-2 14,-3 21,-5l0 -1c5,-7 11,-14 17,-19 6,-5 13,-9 20,-11 7,-2 14,-2 20,-1 6,1 11,4 16,8 5,-2 11,-4 16,-6l0 -1c4,-8 9,-15 14,-21 5,-6 11,-11 16,-14 6,-3 11,-4 17,-3 5,1 10,3 14,7l0 2c5,-3 10,-6 15,-9 3,-7 6,-14 9,-20 4,-6 8,-11 12,-14 4,-3 8,-4 12,-3 3,1 6,2 8,5 6,-5 11,-11 15,-16 1,-6 3,-12 4,-16 2,-6 4,-11 6,-14 2,-3 4,-4 6,-3 1,0 2,2 3,4 10,-12 22,-28 31,-72l-22 -267c-1,50 -43,97 -117,136 -7,4 -15,7 -22,11 -3,1 -6,3 -9,4l0 0c-1,1 -3,1 -4,2l-1 0c-1,1 -3,1 -4,2l0 0c-2,1 -3,1 -5,2l0 0c-16,7 -33,13 -51,18l-1 0 -4 1 -1 0 -5 1 -1 0c-1,0 -3,1 -4,1l-1 0c-1,0 -3,1 -4,1l-1 0 -4 1 -1 0c-11,3 -23,6 -34,9l-1 0 -5 1 -1 0 -4 1 -2 1 -4 1 -2 1 -4 1 -2 0 -4 1 -2 1 -4 1 -3 1 -4 1 -3 1 -4 1 -2 0 -4 1 0 0c-2,0 -4,1 -6,1l0 0c-2,0 -4,1 -7,1l0 0c-2,0 -4,1 -6,1l-5 1 -2 0 -4 1 -3 0 -3 0 -4 1 -3 0 -3 0 -4 1 -3 0 -4 0 -4 0 -3 0 -4 0 -3 0 -4 0 -3 0 -4 0 -4 0 -5 0 -3 0c-2,0 -5,0 -7,1l0 0c-5,0 -10,1 -15,1l-3 0 -5 0 -3 0 -5 0 -3 0 -4 0 -3 0 -4 0 -4 0 -4 0 -4 0 -4 0 -3 0 -4 0 -4 0 -4 0 -4 0 -3 0 -4 0 -5 0 -2 0c-3,0 -5,0 -8,0 -175,2 -331,-28 -437,-76l0 0 0 0 0 0 0 0 0 0 0 0 -1 -1 0 0 0 0 0 0 0 0 0 0 0 0 0 0 0 0 0 0 0 0 0 0 0 0 0 0 0 0 0 0 0 0 0 0 0 0 0 0 0 0 0 0 0 0 0 0 0 0c-89,-41 -140,-95 -139,-151l0 0 -16 244z"/>
   <g>
    <path class="fil3" d="M657 1336l-29 -235c-6,-34 -39,-32 -44,0l-29 235 0 0 1 0 0 0 1 0 0 0 1 0 0 0 1 0 0 0 1 0c0,0 1,-1 1,-1l0 0 0 0 0 0c0,0 1,-1 1,-1l0 0 0 0 0 0 0 0c0,0 1,-1 1,-1l0 0 0 0 0 0c0,0 1,-1 1,-1l0 0 1 0 0 0 0 0 0 0 0 0 1 0 0 0 1 0 0 0 1 0 0 0 0 0c1,0 2,-1 3,-1l1 0 0 0 1 0 0 0 1 0 0 0 1 0 0 0 1 0 1 0 0 0 1 0 0 0 1 0c1,0 2,-1 3,-1l0 0 1 0 0 0 1 0 0 0 1 0 0 0 1 0 0 0 1 0 0 0 1 0 0 0 0 0 1 0 0 0 1 0 0 0 1 0 0 0 1 0 0 0 0 0 0 0 0 0 1 0 0 0 1 0 0 0 1 0 0 0 1 0 0 0 1 0 0 0 1 0 0 0 1 0 0 0 1 0 0 0 1 0 0 0 1 0 0 0 1 0 0 0 1 0 0 0 1 0 0 0 1 0 0 0 1 0 0 0 1 0 1 0 0 0 1 0 0 0 1 0 0 0 1 0 0 0 1 0 0 0 1 0 0 0 1 0 0 0 1 0 0 0 1 0 0 0 1 0 0 0 1 0 0 0 1 0 0 0 1 0 0 0 1 0 0 0 1 0 0 0 1 0 0 0 0 0 0 0 0 0 1 0 0 0 0 0 0 0 1 0 0 0 0 0 0 0 1 0 1 0 0 0 0 0 1 0 0 0 1 0 0 0 1 0 0 0 1 0 0 0 1 0 0 0 1 0 0 0 1 0 0 0 1 0 0 0 1 0 0 0 1 0 0 0 1 0 0 0 1 0 0 0 1 0 0 0 1 0 0 0 1 0 0 0 1 0 1 1 0 0 0 0 1 0 0 0 1 0 0 0 1 0 1 0 0 0 1 0 0 0 0 0 1 0 0 0 1 0 0 0 1 0 0 0 1 0 0 0c1,0 1,1 2,1l0 0c0,0 1,1 1,1l0 0 1 0 0 0 1 0 0 0 0 0 0 0 0 0 0 0 1 0 0 0 1 0 0 0 1 0 0 0 0 0 1 0 1 0 0 0 1 0 0 0z"/>
    <path class="fil3" d="M780 1325l-9 -78c-6,-49 -12,-100 -17,-150 -3,-17 -13,-25 -23,-24 -10,1 -20,10 -22,26 -7,52 -13,103 -20,155l-10 81c7,-6 14,-11 23,-15 9,-4 19,-7 29,-8 10,-1 19,0 28,3 8,2 15,6 22,11z"/>
    <path class="fil3" d="M897 1308l0 -4c-2,-24 -5,-49 -7,-74 -3,-25 -5,-51 -8,-77 -3,-26 -5,-52 -8,-78 -3,-18 -12,-25 -21,-23 -9,2 -19,13 -21,30 -3,27 -6,55 -9,81 -3,27 -6,53 -9,79 -3,26 -6,52 -9,77l0 4c6,-6 13,-12 21,-16 8,-5 17,-8 26,-10 9,-2 18,-1 26,1 7,2 14,5 20,9z"/>
    <path class="fil3" d="M988 1278l0 -4c-2,-24 -4,-49 -7,-74 -2,-25 -5,-51 -7,-76 -2,-26 -5,-52 -7,-78 -2,-18 -10,-24 -17,-22 -7,2 -14,14 -16,31 -2,28 -4,55 -6,82 -2,27 -4,53 -6,80 -2,26 -4,52 -6,77l0 4c5,-7 10,-12 16,-17 6,-5 13,-9 20,-11 7,-2 14,-2 20,-1 6,1 11,4 16,8z"/>
    <path class="fil3" d="M1064 1239l0 -4c-2,-24 -4,-48 -6,-73 -2,-25 -4,-50 -6,-75 -2,-25 -4,-51 -6,-77 -2,-17 -8,-23 -14,-19 -6,3 -12,16 -13,33 -2,28 -3,55 -5,83 -2,27 -3,54 -5,81 -2,26 -3,52 -4,78l0 4c4,-7 8,-14 13,-19 5,-6 11,-11 16,-14 6,-3 11,-4 17,-3 5,1 9,3 13,6z"/>
    <path class="fil3" d="M1123 1203l0 -4c-1,-24 -3,-48 -4,-73 -1,-25 -3,-50 -4,-75 -1,-25 -3,-51 -4,-77 -1,-17 -6,-23 -10,-19 -4,3 -8,16 -9,33 -1,28 -2,55 -3,83 -1,27 -2,54 -3,81 -1,26 -2,52 -3,78l0 4c3,-7 6,-14 9,-19 4,-6 8,-11 12,-14 4,-3 8,-4 12,-3 3,1 7,3 9,6z"/>
    <path class="fil3" d="M89 1197l0 -4c1,-24 3,-48 4,-73 1,-25 3,-50 4,-75 1,-25 3,-51 4,-77 1,-17 6,-23 10,-19 4,3 8,16 9,33 1,28 2,55 3,83 1,27 2,54 3,81 1,26 2,52 3,78l0 4c-3,-7 -6,-14 -9,-19 -4,-6 -8,-11 -12,-14 -4,-3 -8,-4 -12,-3 -3,1 -7,3 -9,6z"/>
    <path class="fil3" d="M57 1157l0 -4c1,-24 1,-48 2,-73 1,-25 1,-50 2,-75 1,-25 1,-51 2,-77 1,-17 3,-23 5,-19 2,3 4,16 5,33 1,28 1,55 2,83 1,27 1,54 2,81 1,26 1,52 2,78l0 4c-1,-7 -3,-14 -5,-19 -2,-6 -4,-11 -6,-14 -2,-3 -4,-4 -6,-3 -2,1 -3,3 -5,6z"/>
    <path class="fil3" d="M1157 1157l0 -4c-1,-24 -1,-48 -2,-73 -1,-25 -1,-50 -2,-75 -1,-25 -1,-51 -2,-77 -1,-17 -3,-23 -5,-19 -2,3 -4,16 -5,33 -1,28 -1,55 -2,83 -1,27 -1,54 -2,81 -1,26 -1,52 -2,78l0 4c1,-7 3,-14 5,-19 2,-6 4,-11 6,-14 2,-3 4,-4 6,-3 2,1 3,3 5,6z"/>
    <path class="fil3" d="M147 1239l0 -4c2,-24 4,-48 6,-73 2,-25 4,-50 6,-75 2,-25 4,-51 6,-77 2,-17 8,-23 14,-19 6,3 12,16 13,33 2,28 3,55 5,83 2,27 3,54 5,81 2,26 3,52 4,78l0 4c-4,-7 -8,-14 -13,-19 -5,-6 -11,-11 -16,-14 -6,-3 -11,-4 -17,-3 -5,1 -9,3 -13,6z"/>
    <path class="fil3" d="M224 1278l0 -4c2,-24 4,-49 7,-74 2,-25 5,-51 7,-76 2,-26 5,-52 7,-78 2,-18 10,-24 17,-22 7,2 14,14 16,31 2,28 4,55 6,82 2,27 4,53 6,80 2,26 4,52 6,77l0 4c-5,-7 -10,-12 -16,-17 -6,-5 -13,-9 -20,-11 -7,-2 -14,-2 -20,-1 -6,1 -11,4 -16,8z"/>
    <path class="fil3" d="M315 1308l0 -4c2,-24 5,-49 7,-74 3,-25 5,-51 8,-76 3,-26 5,-52 8,-78 3,-18 12,-24 21,-23 9,2 19,13 21,30 3,27 6,54 9,81 3,27 6,53 9,79 3,26 6,51 9,77l0 4c-6,-6 -13,-12 -21,-16 -8,-5 -17,-8 -26,-10 -9,-2 -18,-1 -26,1 -7,2 -14,5 -20,9z"/>
    <path class="fil3" d="M432 1325l9 -79c6,-49 12,-100 17,-150 3,-17 13,-25 23,-24 10,1 20,10 22,26 7,52 13,103 20,155l10 83c-7,-6 -15,-11 -23,-15 -9,-4 -19,-7 -29,-8 -10,-1 -19,0 -28,3 -8,2 -15,6 -22,11z"/>
   </g>
   <path class="fil2" d="M586 571c7,0 15,0 22,0l-12 140c-22,2 -42,7 -56,14 -18,9 -27,21 -25,34 2,12 14,22 32,29 17,7 38,11 62,12 24,0 46,-3 64,-10 18,-7 32,-17 36,-28 4,-13 -3,-25 -19,-35 -13,-7 -30,-13 -51,-16l12 -140c109,4 211,21 293,48 103,34 180,83 203,143 25,64 -17,126 -108,175 -96,51 -243,85 -414,87 -171,2 -324,-28 -428,-76 -99,-46 -151,-107 -138,-171 13,-60 80,-112 177,-148 93,-35 216,-57 349,-58z"/>
   <path class="fil3" d="M610 789c19,0 38,-2 52,-7 15,-5 26,-12 30,-21 4,-9 -2,-18 -16,-25 -14,-7 -35,-12 -60,-13 -25,0 -47,4 -62,11 -14,7 -22,16 -20,25 2,9 12,16 26,22 14,5 31,8 51,9z"/>
   <g>
    <g>
     <path id="path17625" class="fil4" d="M687 14c-1,0 -1,-1 -1,0 0,0 0,0 0,0 -1,0 -1,0 -1,-1 -2,0 -2,0 -3,0 0,2 2,0 1,2 1,0 1,-1 3,0 0,0 1,0 1,-1l0 0zm10 42c1,2 1,-1 0,0l0 0zm2 -2c0,0 0,0 0,-1 0,0 -1,0 -1,0 0,0 0,0 0,1 0,0 1,0 1,0zm1 -9c1,1 1,-1 0,-1 0,0 0,0 0,0 0,0 0,0 0,1zm3 -10c0,-1 1,-4 0,-5 0,2 -1,4 0,5zm11 13c0,1 -1,-1 -2,-1 1,2 2,3 1,5 -1,-1 0,-2 -1,-2 -1,1 0,1 1,2 -1,0 -3,-2 -4,-3 0,1 2,2 1,3 -1,0 -1,-1 -2,-1 1,2 3,3 4,5 -2,1 0,2 -1,4 -1,0 0,-1 -1,-2 -1,1 -2,-1 -4,-1 -1,0 1,1 1,2 0,1 -1,1 -1,0 0,2 2,2 3,3 0,2 0,3 -1,4 -1,-1 -2,-1 -3,-2 -1,0 0,1 0,1 1,0 1,2 0,1 0,2 2,2 3,3 0,1 0,2 0,4 -1,1 -2,-1 -1,0 -1,1 -2,-1 -3,-1 -1,0 0,2 -1,2 2,2 4,3 3,6 -2,0 0,-1 -1,-1 0,0 -1,1 0,1 -1,1 -2,-1 -3,-1 0,1 0,1 -1,2 1,1 2,2 4,3 -1,1 0,2 0,3 0,0 -2,1 -2,1 -1,1 -2,-1 -3,-1 -1,0 0,2 -1,1 1,2 5,2 4,6 -1,0 -2,0 -2,2 -1,-1 -2,-1 -3,-2 -2,0 0,2 -2,1 1,2 4,2 5,3 0,1 1,2 0,2 -1,1 -1,0 -2,0 0,1 -1,2 1,2 -2,1 -3,-2 -5,-2 -2,0 -3,2 -5,2 -1,-3 -2,-6 -1,-9 1,2 0,-2 1,-5 1,-2 1,-5 2,-6 0,0 1,0 1,0 0,0 0,0 -1,0 2,-5 4,-14 5,-21 -1,3 -3,6 -3,11 -1,-2 1,-5 1,-7 1,-2 0,-4 2,-5 1,0 1,1 1,1 1,-1 -1,-1 -1,-2 0,-2 1,-4 2,-6 1,0 0,1 1,1 0,-1 0,-5 1,-7 0,-1 0,-1 -1,-1 1,-1 3,-3 2,-5 2,1 -1,3 0,5 1,-2 2,-4 2,-7 -1,0 0,2 -2,1 1,-1 -1,-3 0,-5 -1,0 -1,-2 -2,-2 0,0 1,0 1,0 -1,-1 -3,-3 -4,-3 2,-1 -1,-1 0,-2 0,-1 -2,-1 -2,-1 0,-2 -2,-2 -1,-4 -1,0 -1,0 -2,0 -1,-3 -5,-3 -8,-4 -1,0 -2,1 -2,3 -2,2 -6,3 -8,0 0,-1 1,-2 1,-3 1,0 -1,1 0,2 2,-2 4,-4 6,-6 -1,1 -1,0 -3,0 6,-2 12,2 17,4 -3,0 -7,-2 -11,-1 -1,1 2,0 1,2 3,0 6,1 9,2 2,1 3,3 5,4 2,1 3,2 5,3 2,2 4,7 6,11 1,2 1,5 2,7 -1,1 -2,-2 -3,-2 2,2 4,3 6,6m0 0l0 0 0 0z"/>
     <path id="path17627" class="fil4" d="M703 30c1,1 0,3 0,5 -1,-1 0,-3 0,-5z"/>
     <path id="path17629" class="fil4" d="M701 44c1,0 0,2 0,1 0,0 0,-1 0,-1 0,0 0,0 0,0z"/>
     <path id="path17631" class="fil4" d="M699 53c0,0 0,1 0,1 0,0 -1,0 -1,0 0,0 0,-1 0,-1 0,0 1,0 1,0z"/>
     <path id="path17633" class="fil4" d="M698 55c1,-1 1,2 0,0l0 0z"/>
     <path id="path17635" class="fil4" d="M634 93c0,-1 0,-1 0,-1 0,1 0,1 0,1zm12 -22c0,-1 2,-2 1,-2 0,1 -1,2 -1,2zm0 17c0,0 0,-1 0,-1 0,1 0,1 0,1zm2 -23c0,-1 2,-3 1,-4 -1,1 -2,4 -1,4zm5 -20c0,1 1,5 1,3 -1,-1 0,-3 -1,-3zm4 -26c-1,0 -1,0 -1,0 0,1 -1,1 0,1 0,-1 1,1 1,-1zm-3 23c1,0 2,-3 1,-4 -1,0 -1,3 -1,4zm3 -7c0,-2 2,-4 0,-4 0,2 -2,3 0,4zm1 -8c1,1 1,-2 1,-1 0,1 0,1 -1,1zm2 -13c0,-1 2,-1 0,-1 0,0 -2,1 0,1zm-11 91c1,1 3,3 4,2 0,-1 -2,-2 -3,-3 -2,-2 -5,-5 -6,-9 0,-1 0,-4 0,-3 0,2 1,4 -1,5 1,3 4,6 6,8l0 0zm12 -88c0,0 1,-1 0,-1 0,0 -1,1 0,1zm-9 114c0,-1 0,-1 0,-1 0,0 0,1 0,1zm4 -72c0,1 3,3 4,2 0,-2 -3,-1 -4,-2zm7 -42c0,-1 2,-3 2,-4 0,2 -3,2 -2,4zm-6 56c0,2 3,0 4,2 -1,-1 -3,-1 -4,-2zm5 -20c0,0 0,0 0,-1 -1,-1 -2,-1 -4,-1 0,1 0,1 0,2 1,0 3,1 4,1 0,0 -1,0 -1,0zm-4 58c0,0 0,0 0,-1 0,0 -1,0 -1,0 0,0 0,1 0,1 0,0 0,0 1,0zm6 -65c-1,0 0,0 0,-1 -1,0 -1,0 -1,-1 -2,0 -1,-1 -4,0 0,0 0,0 0,1 1,0 3,2 5,1zm-9 110c0,0 0,-2 0,-1 0,1 0,2 0,1zm12 -138c0,-1 2,-2 1,-3 0,1 -2,3 -1,3zm-6 20c2,0 6,3 5,0 0,2 -2,0 -1,-1 -1,0 -2,-1 -3,0 1,1 -1,0 -1,1zm-6 71c2,1 5,3 7,3 -3,0 -5,-3 -7,-3zm13 -77c0,0 0,-1 0,-1 -1,0 -2,1 -3,0 0,0 0,0 0,0 0,0 -1,1 -1,1 1,0 2,0 4,0zm2 -9c0,0 0,2 1,1 -1,-1 0,-1 0,-2 -1,0 -1,0 -1,0 0,1 -1,1 -1,1 1,0 1,0 1,0 0,-1 0,-1 1,-1zm-9 115c0,0 -1,1 0,1 -1,-1 0,-4 -3,-4 0,2 0,4 2,3l0 0zm4 -26c-1,0 -1,-1 -3,-1 -1,1 2,1 3,1zm33 -75c-1,2 2,0 0,0l0 0zm-63 60c0,-1 1,4 4,5 -3,0 -5,-6 -7,-7 0,0 0,-1 0,-1 0,-1 -1,0 -1,-1 1,-5 0,-7 2,-10 2,0 1,3 1,5 1,0 0,-2 1,-2 1,2 1,-2 1,-2 0,0 1,1 1,0 0,-1 -1,-2 0,-3 0,-1 1,-1 2,-2 0,-1 -2,0 -3,-1 0,-1 2,-3 -1,-3 1,-1 2,-2 5,-1 1,0 0,-3 2,-2 0,-1 -3,0 -4,-1 1,-2 0,-2 0,-4 2,-1 5,0 5,-3 0,-1 -2,0 -3,-1 1,-2 0,-2 0,-4 -3,1 3,-1 4,-1 0,-1 0,-1 1,-2 0,0 -2,0 -3,0 1,-2 0,-4 2,-5 1,0 3,1 2,3 1,-1 0,-5 2,-6 -1,-1 -2,1 -4,1 1,-1 -1,-2 0,-3 -1,0 -1,0 -1,1 -2,-3 6,-1 6,-4 0,-1 -3,-1 -3,0 0,-2 -2,-2 -2,-4 1,0 0,1 1,1 0,0 1,-1 1,-2 -1,0 -1,0 -2,0 2,-1 6,-1 6,-4 -2,0 -2,0 -3,0 0,-1 -2,-1 -2,-3 1,-1 0,1 1,2 -1,-1 2,-3 1,-3 1,-2 5,0 5,-3 0,-1 -2,0 -3,0 0,-1 -1,-2 0,-3 -1,0 -1,2 -2,1 0,-3 3,-2 5,-3 1,-1 1,-1 2,-2 0,-3 0,-3 1,-6 1,0 0,1 0,2 2,-1 1,-3 0,-3 1,-1 1,1 1,1 1,-2 2,-3 3,-5 -1,1 -2,2 -3,3 0,-3 3,-4 6,-5 -1,1 -2,2 -2,2 2,0 5,-4 9,-3 -1,1 -2,2 -3,3 3,-2 6,-3 11,-2 -1,0 -2,1 -3,1 0,0 0,1 -1,2 0,1 1,0 1,0 1,-1 -1,1 -2,1 1,1 -1,2 -1,3 0,3 -1,5 -1,8 0,0 0,0 0,1 11,2 18,6 25,11 1,1 0,3 -1,4 -8,-2 -15,-9 -26,-10 -1,0 -1,2 -2,2 1,1 4,2 6,1 7,3 14,6 20,10 0,1 0,1 0,2 0,1 0,0 -1,0 -1,0 -1,2 -1,3 -8,-3 -15,-9 -25,-10 -1,0 -1,1 -1,2 1,1 4,2 5,1 0,1 1,1 2,2 8,2 14,5 19,9 0,2 -1,3 -1,4 -2,-1 -5,-2 -9,-4 -3,-1 -6,-2 -8,-3 0,0 1,-1 0,-1 -1,1 -2,-1 -4,-1 0,0 0,-1 0,-1 -3,2 -7,-3 -9,1 1,1 3,2 5,2 1,0 1,-3 1,0 6,3 15,6 21,10 0,2 0,2 -1,4 -9,-2 -19,-9 -27,-9 -1,0 0,2 -1,2 1,1 4,2 6,1 0,1 1,1 1,1 4,1 7,2 11,4 3,1 7,3 9,5 0,1 -1,3 -1,4 -1,-1 -2,0 -3,-1 -1,0 -2,-1 -4,-2 -6,-3 -12,-6 -21,-7 -1,0 -1,1 -1,2 1,2 4,1 5,2 1,0 0,-1 0,-2 1,1 1,2 1,3 8,2 15,5 21,9 0,1 0,3 -1,4 -9,-2 -18,-9 -29,-9 -1,-1 -2,-1 -4,-1 2,1 0,3 4,3 1,0 -1,-2 1,-1 0,1 0,1 -1,2 10,3 20,6 28,11 0,2 -1,3 -2,4 -1,0 0,0 0,-1 -6,-1 -13,-6 -21,-7 -1,0 -1,1 -1,1 0,0 0,-1 0,-1 -1,-2 -7,-3 -9,-2 0,1 0,1 0,1 1,0 1,0 2,-1 0,2 5,3 7,2 0,1 1,1 1,2 7,2 14,5 20,7 0,2 -1,4 -2,4 0,0 2,-2 1,-4 0,1 -1,3 -1,3 -6,-1 -13,-6 -20,-6 -2,-1 -7,-3 -10,-2 0,1 2,1 0,1 2,2 2,4 1,7 -1,0 0,-2 -1,-2 0,0 0,2 -1,3 1,2 2,5 1,7 1,-1 1,1 1,3 0,-1 -1,-1 -1,-1 1,-1 -1,-1 -1,-2 0,4 4,7 8,9 -1,-1 -2,-2 -3,-3 4,2 11,9 17,6 -1,-1 -1,1 -3,-1 0,1 -2,0 -2,1 0,-1 -4,-1 -3,-3 -1,0 -1,0 -1,0 -1,-2 -7,-4 -8,-7 0,0 -1,0 -1,0 -1,-1 1,-1 1,-2 -1,-1 -1,1 -2,1 -1,-4 -1,-8 2,-11 -1,0 -2,1 -2,2 -1,0 1,-1 0,-2 4,-4 8,1 7,7 1,-2 1,-1 0,1 1,1 0,0 0,1 1,4 6,7 10,9 1,0 2,0 3,1 1,0 1,1 2,2 0,0 1,-1 1,0 1,0 2,-1 3,-1 -1,1 -2,2 -2,2 2,1 4,2 7,3 -3,0 -9,0 -12,-1 -1,0 -1,1 -1,2 0,2 0,-4 -2,-1 0,-1 0,2 0,2 -1,3 -4,11 -5,16 0,1 -1,2 -1,2 0,4 3,4 4,6 1,0 2,0 3,0 -7,-1 -7,-12 -2,-16 -1,-5 8,-5 11,-2 -2,1 1,2 1,3 -2,-2 -5,-1 -7,-3 1,-1 2,-1 3,0 -3,-2 -9,2 -10,7 1,0 0,-1 2,-1 -2,3 2,4 1,6 -2,0 -2,-2 -3,-2 -1,5 3,6 8,8 -1,2 -3,2 -5,1 -3,0 -4,-3 -6,-3 1,1 1,2 2,3 0,9 -2,19 -3,27 0,0 1,0 1,1 -1,1 0,3 -1,3 -2,0 0,-1 0,-2 0,-8 -1,-16 0,-25 0,-1 1,-2 1,-3 0,-3 -2,-5 -3,-7 -1,-3 1,-9 2,-12 0,0 -2,-1 -3,1 -1,0 0,-1 0,-1 -1,-1 -3,1 -3,-1 -1,1 -2,2 -2,4 1,0 3,0 4,1 0,1 -1,1 -1,0 0,2 1,4 0,5 2,-1 1,-4 2,-5 0,0 0,-1 -1,-1 1,-2 1,3 1,6 0,1 -1,2 -1,3 -1,2 1,5 -1,4 0,1 1,1 1,2 -1,4 0,6 -1,10 0,1 2,0 1,1 0,1 -1,0 -1,0 0,1 0,3 0,4 0,1 -1,0 -1,1 0,1 0,1 0,2 0,2 -1,3 -2,4 0,-10 1,-20 0,-32 -1,0 0,1 -1,1 -1,-1 -1,-2 -1,-2 0,0 0,-1 0,-1 -1,-1 -4,0 -2,-5 -1,1 -1,3 -1,4 -2,-2 0,-5 1,-7 1,0 0,2 0,3 2,-4 2,-10 3,-14 0,-1 0,-1 1,-1 -6,-4 -13,-8 -14,-15 -1,2 0,2 -1,3 0,1 1,0 1,1 1,0 0,0 0,0 0,0 0,-1 0,-1 0,0 0,1 0,1 1,4 8,8 11,11 -6,-4 -13,-7 -15,-14 -1,0 -1,2 -1,0 -1,0 0,1 0,2l0 0zm79 -58c0,0 0,0 0,-1 0,0 0,0 0,1z"/>
     <path id="path17637" class="fil4" d="M698 37c2,0 -1,2 0,0l0 0z"/>
     <path id="path17639" class="fil4" d="M696 45c0,0 0,2 -1,2 0,-1 1,-2 1,-2z"/>
     <path id="path17641" class="fil4" d="M693 70c1,1 0,4 -1,4 0,-2 1,-2 1,-4z"/>
     <path id="path17643" class="fil4" d="M682 187c1,0 1,4 0,4 -3,3 -9,3 -14,1 1,-1 3,-2 4,-2 1,-1 3,-2 4,-2 2,0 4,1 5,-1m0 0l0 0 0 0z"/>
     <path id="path17645" class="fil4" d="M692 75c0,3 -1,6 -2,10 0,-3 2,-7 2,-10 0,0 1,0 1,0m0 0l0 0 0 0z"/>
     <path id="path17647" class="fil4" d="M689 85c0,-1 0,1 0,1 0,1 -1,0 0,-1z"/>
     <path id="path17649" class="fil4" d="M690 73c0,0 0,0 0,0 0,0 0,0 0,1 0,0 0,-1 -1,-1 0,0 1,-1 1,-1 0,0 0,1 1,1m0 0l0 0 0 0z"/>
     <path id="path17651" class="fil4" d="M689 74c1,0 0,1 0,1 -1,0 0,-1 0,-1z"/>
     <path id="path17653" class="fil4" d="M689 71c0,0 0,0 0,0 0,0 0,0 0,0z"/>
     <path id="path17655" class="fil4" d="M677 168c0,-1 1,0 1,1 -1,0 0,-1 -1,-1z"/>
     <path id="path17657" class="fil4" d="M674 138c0,-4 -2,-6 -4,-9 0,0 0,0 -1,0 -2,4 -1,10 5,9l0 0zm1 -12c2,2 3,5 2,8 1,-4 -2,-9 -6,-7 1,3 3,6 5,9 -1,1 -1,2 0,3 -2,0 -2,0 -4,1 -5,-1 -4,-10 0,-12 0,-2 -2,-1 -2,-3 0,0 1,0 1,-1 1,0 2,2 2,2 1,0 2,-1 3,0m0 0l0 0 0 0z"/>
     <path id="path17659" class="fil4" d="M686 13c0,-1 0,0 1,0 0,0 -1,0 -1,1 -2,-1 -2,0 -3,0 1,-2 -1,0 -1,-2 2,0 2,0 3,0 -1,1 0,1 1,1 0,0 0,0 0,0m0 0l0 0 0 0z"/>
     <path id="path17661" class="fil4" d="M654 184c0,-2 -2,-3 -1,-4 0,0 -1,0 -1,0 0,0 0,0 0,0 1,0 0,0 0,0 0,1 0,1 0,1 2,0 0,-1 1,-1 0,0 0,1 0,1 0,0 -1,0 -1,0 1,1 1,2 2,2 0,0 0,0 1,0l0 0zm-2 1c0,1 2,2 2,2 0,0 -1,0 -1,-1 0,0 0,0 0,0 0,1 -1,-1 -1,-1l0 0zm2 -5c0,1 1,0 1,0 0,0 -1,0 -1,0zm1 -1c0,-1 1,-1 1,-1 -1,0 -1,0 -2,1 0,-2 0,-1 -1,0 0,0 0,-1 0,-1 0,0 0,1 0,1 -1,0 0,-1 -1,-1 -2,2 2,1 2,2 0,0 0,0 0,0 1,0 1,-2 2,-1 0,0 -1,1 0,1l0 0zm1 6c-1,-1 -1,1 0,0l0 0zm1 -6c0,0 1,1 1,0 -1,0 0,-1 -1,-1 0,0 -1,0 0,1 0,0 -1,-1 -1,-1 -1,1 0,2 1,1zm0 9c1,0 1,0 1,0 0,0 0,-1 -1,0 0,0 0,0 0,1l0 0zm2 -6c1,-1 -2,-1 -3,-1 1,1 1,0 3,1zm-1 1c0,3 3,-1 1,1 0,-1 -1,0 -1,-1zm2 4c0,0 0,-1 0,-1 0,0 -1,0 -1,0 0,0 0,0 0,1 0,0 1,0 1,0zm1 -2c-1,1 1,1 0,0l0 0zm0 3c-1,0 -1,1 -1,0 0,1 0,1 0,1 1,0 1,-1 2,-1l0 0zm1 -3c0,0 0,-1 0,-1 -1,1 -1,1 0,1zm1 2c-1,0 -2,-1 -3,0 1,0 2,1 3,0zm0 -1c0,0 0,0 0,-1 0,0 0,0 -1,0 0,0 0,0 0,1 0,0 1,0 1,0zm0 -2c1,0 2,1 2,-1 -1,0 -1,0 -2,1zm2 2c-2,1 1,1 0,0l0 0zm1 2c0,-1 -1,0 -1,0 1,-1 -1,0 -2,1 1,-2 -1,1 -1,-1 0,1 -1,0 -1,1 2,0 4,0 5,0zm-1 -5c1,0 3,0 2,-1 0,1 -2,0 -2,1zm3 3c0,-2 -1,0 -1,-1 0,2 1,0 1,1zm-3 -1c2,0 5,0 6,-2 -1,1 -5,1 -6,2zm3 3c0,0 0,0 0,-1 0,0 0,0 -1,0 0,1 0,1 1,1zm0 -5c1,0 2,0 2,-1 -1,0 -2,0 -2,1zm0 3c1,0 3,0 2,-1 0,1 -2,1 -2,1zm3 -5c-1,1 0,3 1,2 -2,-1 1,-4 -1,-6 -1,1 -2,1 -3,0 0,2 -2,1 -3,2 0,-1 0,-1 -1,-1 1,2 -2,1 -4,1 0,1 0,2 0,3 4,0 7,0 10,-1l0 0 0 0zm1 -4c3,3 1,8 -1,10 -1,0 -1,-1 -2,0 1,2 -1,1 -2,2 0,0 1,0 1,-1 0,-1 -1,0 -1,0 -1,0 0,1 -1,1 -2,0 -5,0 -7,0 0,-1 -1,-1 0,-2 -1,0 -1,1 -1,2 -2,-1 -5,-1 -6,-4 0,0 1,1 1,1 0,-2 -2,-2 -2,-4 0,0 0,0 1,0 -1,-2 0,-2 0,-3 1,0 1,0 1,0 0,-1 -1,-1 -1,-2 2,0 0,-1 0,-2 1,0 1,1 2,1 0,-1 -1,-1 -2,-2 1,-1 2,1 4,1 2,1 5,1 9,1 0,0 0,1 0,1 1,0 0,-1 1,-1 3,0 4,-1 7,-1l0 0zm-13 8c0,0 0,0 0,0 0,0 0,0 0,0zm13 -8c0,0 0,0 0,0 0,0 0,0 0,0zm8 -7l0 0 0 0 0 0c0,0 0,0 0,0 0,0 0,0 0,0 0,0 0,0 0,0zm0 0l0 0c0,0 0,0 0,0z"/>
     <path id="path17663" class="fil4" d="M671 181c-1,1 -2,-1 -1,-2 -3,1 -6,2 -10,1 0,-1 0,-2 0,-3 2,0 5,1 4,-1 1,0 1,1 1,1 1,-1 3,0 3,-2 1,1 2,1 3,0 1,2 -2,5 1,6m0 0l0 0 0 0z"/>
     <path id="path17665" class="fil4" d="M669 183c1,1 -1,2 -2,1 0,-1 2,-1 2,-1z"/>
     <path id="path17667" class="fil4" d="M669 181c0,1 -1,1 -2,1 0,-1 1,-1 2,-1z"/>
     <path id="path17669" class="fil4" d="M670 130c1,3 3,5 4,9 -5,2 -6,-4 -5,-9 0,0 1,0 1,0m0 0l0 0 0 0z"/>
     <path id="path17671" class="fil4" d="M667 192c2,2 -2,2 -2,3 -2,0 -1,0 0,-1 0,0 -3,0 -3,1 -1,0 0,0 0,-1 0,0 0,0 -1,0 0,0 0,0 0,0 0,0 -1,0 -1,0 0,1 0,1 0,2 -1,0 -2,0 -2,-1 2,-1 0,-1 1,-2 0,0 0,0 -1,0 0,2 -4,0 -5,-2 4,0 11,2 14,0m0 0l0 0 0 0z"/>
     <path id="path17673" class="fil4" d="M666 175c-1,0 1,-1 2,-1 0,1 -2,0 -2,1z"/>
     <path id="path17675" class="fil4" d="M667 186c0,0 0,0 0,1 -1,0 -1,-1 -1,-1 0,0 0,0 1,0z"/>
     <path id="path17677" class="fil4" d="M669 153c-1,0 1,-1 1,-1 0,0 -1,1 -1,1z"/>
     <path id="path17679" class="fil4" d="M669 182c-1,2 -3,2 -6,2 1,-1 4,-1 6,-2z"/>
     <path id="path17681" class="fil4" d="M665 184c0,1 2,-1 1,1 0,-1 -2,1 -1,-1z"/>
     <path id="path17683" class="fil4" d="M666 181c1,1 -2,1 -2,1 0,-1 2,0 2,-1z"/>
     <path id="path17685" class="fil4" d="M665 195c0,0 0,0 0,0 0,0 0,0 0,0 0,0 0,0 0,0z"/>
     <path id="path17687" class="fil4" d="M665 195c0,0 0,0 0,0 0,0 0,0 0,0z"/>
     <path id="path17689" class="fil4" d="M666 176l0 0c0,0 0,0 0,0z"/>
     <path id="path17691" class="fil4" d="M666 176l0 0c0,0 0,0 0,0z"/>
     <path id="path17693" class="fil4" d="M666 176l0 0c0,0 0,0 0,0z"/>
     <path id="path17695" class="fil4" d="M666 176l0 0c0,0 0,0 0,0z"/>
     <path id="path17697" class="fil4" d="M680 12c0,0 0,1 0,1 -1,0 -1,1 -2,1 -1,1 1,-2 2,-2z"/>
     <path id="path17699" class="fil4" d="M663 186c0,1 1,0 1,0 -1,1 -3,1 -5,0 0,-1 2,0 1,-1 1,1 2,-1 1,1 0,0 2,-2 2,-1z"/>
     <path id="path17701" class="fil4" d="M664 184c1,1 -2,1 0,0l0 0z"/>
     <path id="path17703" class="fil4" d="M663 182c0,1 -1,1 -2,1 0,0 1,-1 2,-1z"/>
     <path id="path17705" class="fil4" d="M662 183c0,0 0,1 0,1 0,0 -1,0 -1,0 0,0 0,0 0,-1 0,0 0,0 1,0z"/>
     <path id="path17707" class="fil4" d="M659 185c0,-1 2,0 3,0 -1,1 -2,1 -3,0z"/>
     <path id="path17709" class="fil4" d="M668 111c0,0 0,0 0,0 0,0 0,0 0,0z"/>
     <path id="path17711" class="fil4" d="M661 182c0,0 0,1 0,1 -1,0 -1,0 0,-1z"/>
     <path id="path17713" class="fil4" d="M659 186c1,1 0,0 1,0 -1,0 -1,1 -2,1 0,0 0,-1 0,-1m0 0l0 0 0 0z"/>
     <path id="path17715" class="fil4" d="M660 183c1,1 -1,1 0,0l0 0z"/>
     <path id="path17717" class="fil4" d="M658 175c0,-1 2,0 2,0 0,1 -2,0 -2,0z"/>
     <path id="path17719" class="fil4" d="M659 184c0,0 0,1 0,1 0,0 -1,0 -1,0 0,0 0,0 0,-1 0,0 1,0 1,0z"/>
     <path id="path17721" class="fil4" d="M659 182c2,-1 -1,2 -1,-1 0,0 1,0 1,1z"/>
     <path id="path17723" class="fil4" d="M662 111c1,0 1,1 3,1 0,1 -3,1 -3,-1z"/>
     <path id="path17725" class="fil4" d="M656 180c0,-1 3,-1 3,1 -1,-1 -1,0 -3,-1z"/>
     <path id="path17727" class="fil4" d="M658 183c0,0 0,0 0,0 0,0 0,0 0,0z"/>
     <path id="path17729" class="fil4" d="M658 186c0,1 -1,1 -1,0 0,0 0,0 0,-1 1,0 1,0 1,0m0 0l0 0 0 0z"/>
     <path id="path17731" class="fil4" d="M658 183c0,0 0,0 0,0 0,0 0,0 0,0z"/>
     <path id="path17733" class="fil4" d="M653 194c1,-1 2,1 4,1 -2,1 -3,-1 -4,-1z"/>
     <path id="path17735" class="fil4" d="M659 178c0,1 -1,0 -1,0 0,-1 0,-1 0,-1 1,0 0,2 1,1z"/>
     <path id="path17737" class="fil4" d="M662 138c-1,0 0,0 0,-1 -2,1 -2,-1 -2,-3 2,0 2,3 3,4z"/>
     <path id="path17739" class="fil4" d="M671 23c0,1 -1,-1 -1,-1 -1,0 0,1 -1,1 -1,0 -1,-1 -1,0 0,-1 1,0 1,-1 1,0 1,0 1,0 1,1 0,1 0,2z"/>
     <path id="path17741" class="fil4" d="M664 99c0,1 -1,0 -1,-1 0,0 0,1 1,1z"/>
     <path id="path17743" class="fil4" d="M656 177c0,0 1,1 1,1 0,1 -1,-1 -1,-1z"/>
     <path id="path17745" class="fil4" d="M657 184c-1,1 -1,-1 0,0l0 0z"/>
     <path id="path17747" class="fil4" d="M656 177c0,1 0,1 -1,1 -1,0 0,-1 0,-1 -1,0 -1,2 -2,1 0,0 0,0 0,0 0,-1 -4,-1 -2,-2 1,0 0,1 1,1 1,0 0,-1 0,-1 0,0 0,1 0,1 1,0 1,-1 1,0 0,0 1,-1 2,-1m0 0l0 0 0 0z"/>
     <path id="path17749" class="fil4" d="M656 179c0,0 -2,1 -1,0 0,0 1,-1 1,0z"/>
     <path id="path17751" class="fil4" d="M669 30c0,0 0,1 0,1 -1,0 -2,0 -4,0 0,-1 0,-1 1,-1 0,0 0,0 0,0 1,1 2,0 3,0z"/>
     <path id="path17753" class="fil4" d="M662 111c-2,0 -5,-2 -7,-3 2,0 4,2 7,3z"/>
     <path id="path17755" class="fil4" d="M655 186c-1,1 -2,-1 -2,-2 1,0 1,1 1,1 0,0 0,0 0,0 0,0 0,1 1,1m0 0l0 0 0 0z"/>
     <path id="path17757" class="fil4" d="M656 161c0,-1 1,2 0,0 0,0 0,0 0,0z"/>
     <path id="path17759" class="fil4" d="M655 165c-1,-3 2,2 0,0 0,0 0,0 0,0z"/>
     <path id="path17761" class="fil4" d="M667 38c1,2 -4,0 -5,0 0,-1 3,0 1,-1 0,-1 2,0 3,0 0,1 1,3 1,1z"/>
     <path id="path17763" class="fil4" d="M653 184c2,1 0,-2 0,-2 0,1 0,1 0,2zm0 -4c-1,1 1,2 1,4 0,0 -1,0 -1,0 -1,0 -1,-1 -2,-2 0,0 1,0 1,0 0,-1 0,-1 0,-1 -1,0 1,1 -1,1 0,0 0,-1 0,-1 0,0 1,0 0,0 0,0 0,0 0,0 0,0 1,0 1,0m0 0l0 0 0 0z"/>
     <path id="path17765" class="fil4" d="M654 189c-2,0 -1,-2 -2,-2 1,-1 2,1 2,2z"/>
     <path id="path17767" class="fil4" d="M655 172c1,0 -1,2 1,1 -1,1 -5,-2 -5,-4 1,1 1,2 2,2 1,0 0,-1 1,-2 1,0 0,1 1,1 0,1 -1,0 -2,1 0,1 2,1 1,0z"/>
     <path id="path17769" class="fil4" d="M655 171c1,-1 1,2 0,0l0 0z"/>
     <path id="path17771" class="fil4" d="M668 14c2,1 -1,2 -1,3 -1,-1 1,-2 1,-3z"/>
     <path id="path17773" class="fil4" d="M653 182c0,-1 2,2 0,2 0,-1 0,-1 0,-2z"/>
     <path id="path17775" class="fil4" d="M655 155c0,-1 0,1 0,1 0,1 -1,0 0,-1z"/>
     <path id="path17777" class="fil4" d="M665 45c0,0 -1,0 0,1 -2,1 -3,-1 -5,-1 0,0 1,-1 0,-1 3,-1 2,1 4,0 0,1 0,1 1,1z"/>
     <path id="path17779" class="fil4" d="M653 164c1,0 0,1 1,2 -1,0 -1,-1 -1,-2z"/>
     <path id="path17781" class="fil4" d="M658 111c0,0 0,0 0,1 0,0 0,0 -1,0 0,0 0,-1 0,-1 0,0 1,0 1,0z"/>
     <path id="path17783" class="fil4" d="M657 126c0,0 0,0 0,0 0,0 0,0 0,0z"/>
     <path id="path17785" class="fil4" d="M661 92c-2,-1 -2,-3 -3,-3 2,-2 3,1 3,3z"/>
     <path id="path17787" class="fil4" d="M662 53c0,0 0,1 0,1 0,0 0,0 1,0 -1,1 -3,-1 -4,-1 -1,0 0,-1 0,-2 2,0 3,1 4,1z"/>
     <path id="path17789" class="fil4" d="M661 75c-2,-2 -4,0 -4,-2 2,0 4,0 4,2z"/>
     <path id="path17791" class="fil4" d="M664 13c0,1 -1,3 -2,4 -1,-2 2,-2 2,-4z"/>
     <path id="path17793" class="fil4" d="M660 61c-1,1 -4,-1 -4,-2 2,0 4,0 4,2z"/>
     <path id="path17795" class="fil4" d="M652 131c0,-1 0,0 0,1 0,1 0,0 0,-1z"/>
     <path id="path17797" class="fil4" d="M662 16c1,0 0,1 0,1 -1,0 0,-1 0,-1z"/>
     <path id="path17799" class="fil4" d="M654 108c-2,0 -3,-1 -4,-2 -2,-2 -5,-4 -6,-8 1,-1 0,-3 1,-5 1,0 0,2 0,3 1,3 4,7 6,9 1,1 3,1 3,3l0 0zm-9 -9l0 0c0,0 0,0 0,0z"/>
     <path id="path17801" class="fil4" d="M661 14c1,0 -1,1 0,1 -1,0 0,-1 0,-1z"/>
     <path id="path17803" class="fil4" d="M653 103c0,0 0,0 0,0 0,0 0,0 0,0z"/>
     <path id="path17805" class="fil4" d="M659 26c1,0 0,2 -1,1 0,0 0,-1 1,-1z"/>
     <path id="path17807" class="fil4" d="M653 102c0,0 0,0 0,1 0,0 0,0 0,-1z"/>
     <path id="path17809" class="fil4" d="M658 32c1,0 -1,2 0,4 -1,-1 1,-2 0,-4z"/>
     <path id="path17811" class="fil4" d="M656 39c0,1 0,4 -1,4 1,-1 0,-4 1,-4z"/>
     <path id="path17813" class="fil4" d="M656 19c0,0 1,0 1,0 0,1 -1,0 -1,1 -1,0 0,0 0,-1z"/>
     <path id="path17815" class="fil4" d="M650 98c0,0 0,0 0,1 0,0 0,0 0,-1z"/>
     <path id="path17817" class="fil4" d="M654 48c0,1 -1,-2 -1,-3 1,0 0,3 1,3z"/>
     <path id="path17819" class="fil4" d="M656 15c-2,1 -1,2 0,0l0 0zm2 -2c-2,2 -3,5 -4,7 -1,-1 2,-3 0,-3 2,-1 2,-4 5,-4z"/>
     <path id="path17821" class="fil4" d="M656 15c-1,2 -2,1 0,0l0 0z"/>
     <path id="path17823" class="fil4" d="M649 61c0,1 -1,3 -1,4 -1,0 1,-3 1,-4z"/>
     <path id="path17825" class="fil4" d="M652 18c1,0 1,1 0,2 -1,0 0,-1 0,-2z"/>
     <path id="path17827" class="fil4" d="M645 100l0 0c0,0 0,0 0,0z"/>
     <path id="path17829" class="fil4" d="M645 87c0,-1 0,0 0,1 0,1 0,0 0,-1z"/>
     <path id="path17831" class="fil4" d="M647 69c1,1 0,2 -1,2 -1,0 1,-1 1,-2z"/>
     <path id="path17833" class="fil4" d="M639 97c0,0 0,1 0,1 0,0 0,0 0,-1z"/>
     <path id="path17835" class="fil4" d="M633 92c0,-1 0,0 0,1 0,1 0,0 0,-1z"/>
     <path id="path17837" class="fil4" d="M635 74c0,0 0,0 0,1 0,0 -1,0 -1,0 0,0 0,-1 0,-1 0,0 0,0 1,0z"/>
    </g>
    <path class="fil2" d="M654 183l15 1 -49 568c-6,5 -11,5 -15,-1l49 -568z"/>
   </g>
  </g>
 </g>
</svg>
