<?xml version="1.0" encoding="UTF-8"?>
<!DOCTYPE svg PUBLIC "-//W3C//DTD SVG 1.1//EN" "http://www.w3.org/Graphics/SVG/1.1/DTD/svg11.dtd">
<!-- Creator: CorelDRAW X6 -->
<svg xmlns="http://www.w3.org/2000/svg" xml:space="preserve" width="200mm" height="80mm" version="1.1" style="shape-rendering:geometricPrecision; text-rendering:geometricPrecision; image-rendering:optimizeQuality; fill-rule:evenodd; clip-rule:evenodd"
viewBox="0 0 20000 8000"
 xmlns:xlink="http://www.w3.org/1999/xlink">
 <defs>
  <style type="text/css">
   <![CDATA[
    .fil3 {fill:black}
    .fil2 {fill:#1A1A1A}
    .fil4 {fill:white}
    .fil1 {fill:black;fill-rule:nonzero}
    .fil5 {fill:#1A1A1A;fill-rule:nonzero}
    .fil0 {fill:#660066;fill-rule:nonzero}
   ]]>
  </style>
 </defs>
 <g id="Camada_x0020_1">
  <metadata id="CorelCorpID_0Corel-Layer"/>
  <path class="fil0" d="M6447 4003l67 0c8,128 51,229 128,304 78,75 179,112 304,112 122,0 222,-32 299,-95 77,-64 115,-145 115,-246 0,-91 -25,-160 -76,-209 -51,-48 -168,-98 -352,-150 -6,-2 -16,-4 -28,-8 -166,-46 -272,-91 -318,-133 -34,-30 -60,-66 -77,-107 -18,-41 -26,-86 -26,-134 0,-115 40,-208 119,-277 80,-70 186,-105 319,-105 138,0 249,39 334,115 84,77 129,181 133,313l-65 -1c-2,-112 -40,-201 -114,-269 -74,-68 -172,-101 -293,-101 -114,0 -203,29 -270,88 -66,59 -99,138 -99,237 0,38 7,73 22,106 15,33 37,63 67,90 40,38 137,78 289,119 13,3 22,6 28,7 193,52 321,107 383,163 62,57 93,136 93,237 0,127 -44,229 -132,305 -88,77 -205,115 -353,115 -143,0 -259,-42 -348,-127 -88,-85 -138,-201 -150,-350zm1249 445l0 -1459 69 0 0 1459 -69 0zm479 -63l281 0c110,0 198,-6 263,-17 65,-12 123,-30 173,-56 87,-46 154,-120 200,-222 46,-102 69,-226 69,-372 0,-123 -16,-230 -49,-320 -32,-91 -81,-164 -144,-221 -51,-45 -114,-78 -187,-97 -74,-19 -182,-29 -324,-29l-281 0 0 1334zm-69 63l0 -1459 335 0c123,0 219,6 289,17 70,11 130,29 180,54 106,52 186,134 241,246 55,112 82,250 82,413 0,165 -28,303 -83,415 -55,112 -135,193 -240,242 -52,25 -115,43 -188,54 -73,11 -167,17 -281,17l-335 0zm1398 0l0 -1459 891 0 0 63 -822 0 0 605 751 0 0 63 -751 0 0 666 842 0 0 63 -911 0zm1075 -445l67 0c8,128 51,229 128,304 78,75 179,112 304,112 122,0 222,-32 299,-95 77,-64 115,-145 115,-246 0,-91 -25,-160 -76,-209 -51,-48 -168,-98 -352,-150 -6,-2 -16,-4 -28,-8 -166,-46 -272,-91 -318,-133 -34,-30 -60,-66 -77,-107 -18,-41 -26,-86 -26,-134 0,-115 40,-208 119,-277 80,-70 186,-105 319,-105 138,0 249,39 334,115 84,77 129,181 133,313l-65 -1c-2,-112 -40,-201 -114,-269 -74,-68 -172,-101 -293,-101 -114,0 -203,29 -270,88 -66,59 -99,138 -99,237 0,38 7,73 22,106 15,33 37,63 67,90 40,38 137,78 289,119 13,3 22,6 28,7 193,52 321,107 383,163 62,57 93,136 93,237 0,127 -44,229 -132,305 -88,77 -205,115 -353,115 -143,0 -259,-42 -348,-127 -88,-85 -138,-201 -150,-350zm1238 445l0 -1459 69 0 0 647 921 0 0 -647 69 0 0 1459 -69 0 0 -749 -921 0 0 749 -69 0zm1403 -728c0,218 51,389 153,514 102,124 243,186 423,186 179,0 320,-62 422,-186 103,-124 154,-295 154,-514 0,-219 -51,-390 -154,-515 -103,-125 -243,-187 -422,-187 -179,0 -320,62 -422,187 -102,125 -153,297 -153,516zm-71 0c0,-238 58,-425 173,-560 115,-136 273,-203 474,-203 201,0 359,68 474,204 115,136 173,322 173,560 0,236 -58,423 -173,558 -115,136 -273,203 -474,203 -201,0 -359,-68 -474,-203 -115,-135 -173,-321 -173,-559zm1805 729l-390 -1459 69 0 356 1338 354 -1338 84 0 352 1338 356 -1338 68 0 -390 1459 -69 0 -361 -1363 -362 1363 -69 0z"/>
  <path class="fil1" d="M8477 5480l128 -330 17 0 125 330 -15 0 -43 -112 -154 0 -43 112 -16 0zm64 -126l143 0 -71 -186 -72 186zm240 126l0 -330 16 0 207 304 0 -304 16 0 0 330 -16 0 -207 -304 0 304 -16 0zm435 0l0 -330 16 0 0 330 -16 0zm93 0l0 -330 16 0 207 304 0 -304 16 0 0 330 -16 0 -207 -304 0 304 -16 0zm564 -109c-2,36 -15,64 -38,85 -23,21 -53,31 -90,31 -43,0 -77,-15 -101,-45 -24,-30 -36,-72 -36,-126 0,-54 12,-97 37,-127 25,-31 59,-46 103,-46 34,0 62,10 85,29 23,19 36,44 39,75l-16 0c-5,-28 -16,-50 -36,-66 -19,-16 -45,-24 -75,-24 -37,0 -67,14 -89,43 -22,29 -33,67 -33,117 0,49 11,88 32,116 21,28 50,42 87,42 34,0 61,-9 81,-28 21,-19 32,-44 33,-75l15 0zm62 109l0 -330 110 0c40,0 69,7 87,20 18,13 26,36 26,66 0,21 -5,38 -15,52 -10,13 -25,23 -45,29 14,3 25,9 32,18 8,9 12,22 14,39 1,10 2,25 3,43 2,33 6,54 12,63l-17 0c-5,-6 -9,-25 -10,-56 0,-5 0,-9 0,-11 0,-2 0,-4 0,-8 -2,-31 -7,-52 -15,-62 -6,-7 -13,-12 -23,-14 -10,-3 -23,-4 -41,-4l-102 0 0 156 -16 0zm16 -170l102 0c29,0 52,-6 67,-18 15,-12 23,-30 23,-54 0,-11 -2,-21 -5,-29 -3,-9 -8,-16 -14,-23 -8,-8 -16,-13 -26,-16 -10,-3 -28,-5 -52,-5l-94 0 0 146zm270 170l0 -330 202 0 0 14 -186 0 0 137 170 0 0 14 -170 0 0 151 191 0 0 14 -206 0zm276 -14l64 0c25,0 45,-1 60,-4 15,-3 28,-7 39,-13 20,-10 35,-27 45,-50 10,-23 16,-51 16,-84 0,-28 -4,-52 -11,-73 -7,-21 -18,-37 -33,-50 -12,-10 -26,-18 -42,-22 -17,-4 -41,-7 -73,-7l-64 0 0 302zm-16 14l0 -330 76 0c28,0 50,1 65,4 16,3 29,7 41,12 24,12 42,30 55,56 12,25 19,57 19,94 0,37 -6,69 -19,94 -12,25 -31,44 -54,55 -12,6 -26,10 -43,12 -17,3 -38,4 -64,4l-76 0zm319 0l0 -330 16 0 0 330 -16 0zm93 0l0 -330 90 0c23,0 41,1 53,3 13,2 24,6 32,11 11,7 20,16 26,28 6,12 9,25 9,40 0,18 -5,33 -15,46 -10,13 -24,23 -42,29 25,5 43,14 55,28 12,14 18,33 18,57 0,15 -3,29 -10,42 -7,13 -16,23 -28,30 -9,6 -20,10 -34,12 -13,2 -32,4 -57,4l-101 0zm16 -178l77 0c35,0 62,-6 78,-17 17,-12 25,-30 25,-54 0,-24 -8,-41 -23,-51 -15,-10 -43,-15 -81,-15l-76 0 0 138zm0 164l82 0c22,0 38,-1 48,-2 10,-1 19,-3 26,-6 13,-5 23,-14 30,-26 7,-12 11,-26 11,-43 0,-26 -9,-45 -27,-57 -18,-12 -47,-18 -87,-18l-82 0 0 152zm269 14l0 -330 16 0 0 316 175 0 0 14 -191 0zm233 0l0 -330 202 0 0 14 -186 0 0 137 170 0 0 14 -170 0 0 151 191 0 0 14 -206 0zm360 -103l16 0c0,2 0,5 0,8 0,3 0,5 0,6 0,28 6,49 17,63 11,14 28,21 50,21 24,0 41,-7 52,-21 10,-14 16,-39 16,-74l0 -230 16 0 0 234c0,36 -7,62 -20,79 -14,17 -35,25 -64,25 -26,0 -46,-8 -60,-24 -14,-16 -21,-38 -21,-68 0,-5 0,-9 0,-11 0,-3 0,-5 0,-8zm197 103l128 -330 17 0 125 330 -15 0 -43 -112 -154 0 -43 112 -16 0zm64 -126l143 0 -71 -186 -72 186zm307 126l-114 -330 16 0 106 308 106 -308 16 0 -115 330 -15 0zm117 0l128 -330 17 0 125 330 -15 0 -43 -112 -154 0 -43 112 -16 0zm64 -126l143 0 -71 -186 -72 186zm223 26l15 0c2,29 11,52 29,69 18,17 41,25 69,25 28,0 50,-7 68,-22 17,-14 26,-33 26,-56 0,-21 -6,-36 -17,-47 -11,-11 -38,-22 -80,-34 -1,0 -4,-1 -6,-2 -38,-10 -61,-21 -72,-30 -8,-7 -13,-15 -17,-24 -4,-9 -6,-19 -6,-30 0,-26 9,-47 27,-63 18,-16 42,-24 72,-24 31,0 56,9 76,26 19,17 29,41 30,71l-15 0c0,-25 -9,-46 -26,-61 -17,-15 -39,-23 -66,-23 -26,0 -46,7 -61,20 -15,13 -22,31 -22,54 0,9 2,17 5,24 3,8 8,14 15,20 9,9 31,18 65,27 3,1 5,1 6,2 44,12 73,24 87,37 14,13 21,31 21,54 0,29 -10,52 -30,69 -20,17 -46,26 -80,26 -32,0 -59,-10 -79,-29 -20,-19 -31,-46 -34,-79zm531 -9c-2,36 -15,64 -38,85 -23,21 -53,31 -90,31 -43,0 -77,-15 -101,-45 -24,-30 -36,-72 -36,-126 0,-54 12,-97 37,-127 25,-31 59,-46 103,-46 34,0 62,10 85,29 23,19 36,44 39,75l-16 0c-5,-28 -16,-50 -36,-66 -19,-16 -45,-24 -75,-24 -37,0 -67,14 -89,43 -22,29 -33,67 -33,117 0,49 11,88 32,116 21,28 50,42 87,42 34,0 61,-9 81,-28 21,-19 32,-44 33,-75l15 0zm62 109l0 -330 110 0c40,0 69,7 87,20 18,13 26,36 26,66 0,21 -5,38 -15,52 -10,13 -25,23 -45,29 14,3 25,9 32,18 8,9 12,22 14,39 1,10 2,25 3,43 2,33 6,54 12,63l-17 0c-5,-6 -9,-25 -10,-56 0,-5 0,-9 0,-11 0,-2 0,-4 0,-8 -2,-31 -7,-52 -15,-62 -6,-7 -13,-12 -23,-14 -10,-3 -23,-4 -41,-4l-102 0 0 156 -16 0zm16 -170l102 0c29,0 52,-6 67,-18 15,-12 23,-30 23,-54 0,-11 -2,-21 -5,-29 -3,-9 -8,-16 -14,-23 -8,-8 -16,-13 -26,-16 -10,-3 -28,-5 -52,-5l-94 0 0 146zm272 170l0 -330 16 0 0 330 -16 0zm183 -330c41,0 71,7 90,21 19,14 29,36 29,66 0,13 -2,25 -6,36 -4,11 -10,21 -19,29 -9,9 -20,16 -34,20 -14,4 -34,6 -62,6l-73 0 0 153 -16 0 0 -330 90 0zm-11 14l-63 0 0 149 63 0c24,0 42,-1 51,-2 10,-1 18,-4 25,-7 12,-5 21,-14 28,-26 7,-12 10,-27 10,-43 0,-13 -3,-25 -8,-36 -6,-10 -14,-18 -25,-24 -8,-4 -17,-7 -28,-9 -11,-2 -29,-3 -53,-3zm258 316l0 -316 -103 0 0 -14 221 0 0 14 -103 0 0 316 -16 0zm-5486 551l0 -330 16 0 0 330 -16 0zm93 0l0 -330 16 0 207 304 0 -304 16 0 0 330 -16 0 -207 -304 0 304 -16 0zm386 0l0 -316 -103 0 0 -14 221 0 0 14 -103 0 0 316 -16 0zm161 0l0 -330 202 0 0 14 -186 0 0 137 170 0 0 14 -170 0 0 151 191 0 0 14 -206 0zm260 0l0 -330 110 0c40,0 69,7 87,20 18,13 26,36 26,66 0,21 -5,38 -15,52 -10,13 -25,23 -45,29 14,3 25,9 32,18 8,9 12,22 14,39 1,10 2,25 3,43 2,33 6,54 12,63l-17 0c-5,-6 -9,-25 -10,-56 0,-5 0,-9 0,-11 0,-2 0,-4 0,-8 -2,-31 -7,-52 -15,-62 -6,-7 -13,-12 -23,-14 -10,-3 -23,-4 -41,-4l-102 0 0 156 -16 0zm16 -170l102 0c29,0 52,-6 67,-18 15,-12 23,-30 23,-54 0,-11 -2,-21 -5,-29 -3,-9 -8,-16 -14,-23 -8,-8 -16,-13 -26,-16 -10,-3 -28,-5 -52,-5l-94 0 0 146zm230 170l128 -330 17 0 125 330 -15 0 -43 -112 -154 0 -43 112 -16 0zm64 -126l143 0 -71 -186 -72 186zm491 17c-2,36 -15,64 -38,85 -23,21 -53,31 -90,31 -43,0 -77,-15 -101,-45 -24,-30 -36,-72 -36,-126 0,-54 12,-97 37,-127 25,-31 59,-46 103,-46 34,0 62,10 85,29 23,19 36,44 39,75l-16 0c-5,-28 -16,-50 -36,-66 -19,-16 -45,-24 -75,-24 -37,0 -67,14 -89,43 -22,29 -33,67 -33,117 0,49 11,88 32,116 21,28 50,42 87,42 34,0 61,-9 81,-28 21,-19 32,-44 33,-75l15 0zm135 109l0 -316 -103 0 0 -14 221 0 0 14 -103 0 0 316 -16 0zm163 0l0 -330 16 0 0 330 -16 0zm168 0l-114 -330 16 0 106 308 106 -308 16 0 -115 330 -15 0zm166 0l0 -330 202 0 0 14 -186 0 0 137 170 0 0 14 -170 0 0 151 191 0 0 14 -206 0zm380 0l0 -330 16 0 0 147 209 0 0 -147 16 0 0 330 -16 0 0 -170 -209 0 0 170 -16 0zm315 0l0 -330 202 0 0 14 -186 0 0 137 170 0 0 14 -170 0 0 151 191 0 0 14 -206 0zm261 0l0 -330 16 0 0 316 175 0 0 14 -191 0zm323 -330c41,0 71,7 90,21 19,14 29,36 29,66 0,13 -2,25 -6,36 -4,11 -10,21 -19,29 -9,9 -20,16 -34,20 -14,4 -34,6 -62,6l-73 0 0 153 -16 0 0 -330 90 0zm-11 14l-63 0 0 149 63 0c24,0 42,-1 51,-2 10,-1 18,-4 25,-7 12,-5 21,-14 28,-26 7,-12 10,-27 10,-43 0,-13 -3,-25 -8,-36 -6,-10 -14,-18 -25,-24 -8,-4 -17,-7 -28,-9 -11,-2 -29,-3 -53,-3zm305 316l0 -330 16 0 0 316 175 0 0 14 -191 0zm236 0l0 -330 16 0 0 330 -16 0zm93 0l0 -330 90 0c23,0 41,1 53,3 13,2 24,6 32,11 11,7 20,16 26,28 6,12 9,25 9,40 0,18 -5,33 -15,46 -10,13 -24,23 -42,29 25,5 43,14 55,28 12,14 18,33 18,57 0,15 -3,29 -10,42 -7,13 -16,23 -28,30 -9,6 -20,10 -34,12 -13,2 -32,4 -57,4l-101 0zm16 -178l77 0c35,0 62,-6 78,-17 17,-12 25,-30 25,-54 0,-24 -8,-41 -23,-51 -15,-10 -43,-15 -81,-15l-76 0 0 138zm0 164l82 0c22,0 38,-1 48,-2 10,-1 19,-3 26,-6 13,-5 23,-14 30,-26 7,-12 11,-26 11,-43 0,-26 -9,-45 -27,-57 -18,-12 -47,-18 -87,-18l-82 0 0 152zm268 14l0 -330 110 0c40,0 69,7 87,20 18,13 26,36 26,66 0,21 -5,38 -15,52 -10,13 -25,23 -45,29 14,3 25,9 32,18 8,9 12,22 14,39 1,10 2,25 3,43 2,33 6,54 12,63l-17 0c-5,-6 -9,-25 -10,-56 0,-5 0,-9 0,-11 0,-2 0,-4 0,-8 -2,-31 -7,-52 -15,-62 -6,-7 -13,-12 -23,-14 -10,-3 -23,-4 -41,-4l-102 0 0 156 -16 0zm16 -170l102 0c29,0 52,-6 67,-18 15,-12 23,-30 23,-54 0,-11 -2,-21 -5,-29 -3,-9 -8,-16 -14,-23 -8,-8 -16,-13 -26,-16 -10,-3 -28,-5 -52,-5l-94 0 0 146zm230 170l128 -330 17 0 125 330 -15 0 -43 -112 -154 0 -43 112 -16 0zm64 -126l143 0 -71 -186 -72 186zm240 126l0 -330 110 0c40,0 69,7 87,20 18,13 26,36 26,66 0,21 -5,38 -15,52 -10,13 -25,23 -45,29 14,3 25,9 32,18 8,9 12,22 14,39 1,10 2,25 3,43 2,33 6,54 12,63l-17 0c-5,-6 -9,-25 -10,-56 0,-5 0,-9 0,-11 0,-2 0,-4 0,-8 -2,-31 -7,-52 -15,-62 -6,-7 -13,-12 -23,-14 -10,-3 -23,-4 -41,-4l-102 0 0 156 -16 0zm16 -170l102 0c29,0 52,-6 67,-18 15,-12 23,-30 23,-54 0,-11 -2,-21 -5,-29 -3,-9 -8,-16 -14,-23 -8,-8 -16,-13 -26,-16 -10,-3 -28,-5 -52,-5l-94 0 0 146zm346 170l0 -146 -113 -184 18 0 105 169 103 -169 17 0 -113 185 0 145 -16 0z"/>
  <path class="fil2" d="M1073 4882c10,110 34,314 107,409 5,-11 11,-18 17,-20 7,-3 15,2 24,14 8,12 16,31 24,55 6,20 12,45 17,72 13,16 28,31 43,47 12,-14 25,-23 39,-26 15,-3 31,2 48,14 17,12 33,31 48,55 15,24 28,53 40,86l0 10c18,12 38,24 58,35l0 -3c17,-16 36,-25 57,-28 21,-3 43,2 67,14 23,12 46,31 66,55 20,23 38,51 54,83 23,10 47,19 72,29 18,-15 38,-25 60,-30 25,-6 53,-6 81,2 29,8 56,23 81,44 25,21 48,47 68,76l0 1c28,7 55,15 84,22 22,-14 46,-24 72,-30 33,-8 69,-9 106,-2 37,6 73,20 106,39 31,18 59,40 84,67 29,4 58,9 87,13l0 -4c28,-21 59,-38 94,-48 35,-10 73,-14 113,-11 40,3 79,14 115,31 36,17 69,39 98,66l1 5c26,1 52,3 78,4l1 -5c57,-48 130,-77 210,-77 80,0 153,29 210,77l1 5c26,-1 52,-2 77,-3l1 -8c29,-27 62,-49 98,-66 36,-16 75,-27 115,-31 40,-3 78,1 113,11 35,10 67,26 94,48l1 8c29,-4 58,-8 86,-12 25,-26 53,-48 84,-66 33,-19 69,-33 106,-39 37,-6 73,-5 106,2 26,6 51,17 73,31 28,-7 56,-14 84,-21l0 -5c20,-30 43,-56 68,-76 25,-20 52,-36 81,-44 29,-8 56,-9 81,-2 23,6 45,17 63,33 22,-8 43,-17 63,-25l0 -3c16,-33 35,-62 55,-86 21,-24 43,-43 66,-55 23,-12 46,-16 67,-14 21,3 40,12 57,28l1 9c21,-12 42,-25 61,-37 11,-30 24,-57 38,-79 15,-24 31,-43 48,-55 17,-12 33,-16 48,-14 12,2 23,8 32,18 23,-22 43,-44 62,-66 5,-25 10,-47 16,-66 7,-24 15,-43 24,-55 8,-12 16,-16 24,-14 5,2 10,7 14,15 41,-47 90,-114 126,-289l-87 -1078c-5,201 -175,393 -473,548 -29,15 -59,30 -90,44 -12,6 -24,11 -37,17l-1 0c-6,3 -12,5 -17,8l-3 1c-6,3 -12,5 -18,7l-1 0c-6,3 -12,5 -19,8l-2 1c-65,26 -133,51 -205,74l-4 1 -18 6 -4 1 -18 6 -5 2c-6,2 -12,4 -18,5l-6 2c-6,2 -12,3 -18,5l-6 2 -18 5 -3 1c-45,12 -91,24 -138,35l-3 1 -20 5 -6 1 -17 4 -10 2 -16 3 -10 2 -16 3 -9 2 -17 3 -10 2 -16 3 -11 2 -16 3 -11 2 -16 3 -10 2 -17 3 -1 0c-8,1 -16,3 -25,4l-2 0c-9,1 -18,3 -26,4l-1 0c-9,1 -17,3 -26,4l-20 3 -8 1 -16 2 -12 2 -13 2 -15 2 -14 2 -13 2 -16 2 -13 2 -14 2 -15 2 -14 2 -16 2 -12 1 -17 2 -14 1 -15 2 -14 1 -19 2 -11 1c-10,1 -20,2 -29,3l-1 0c-20,2 -40,3 -59,5l-10 1 -21 2 -10 1 -19 1 -13 1 -18 1 -13 1 -16 1 -16 1 -14 1 -15 1 -17 1 -14 1 -17 1 -14 1 -15 1 -17 1 -13 0 -17 0 -22 0 -9 0c-11,0 -21,0 -32,1 -705,9 -1334,-111 -1763,-306l0 0 0 0 0 0 0 0 0 0 0 0 -5 -2 0 0 -1 0 0 0 0 0 0 0 0 0 0 0 0 0 0 0 0 0 0 0 0 0 0 0 0 0 0 0 0 0 0 0 0 0 0 0 0 0 0 0 0 0 -2 -1 0 0c-360,-166 -565,-381 -561,-610l0 0 -63 986z"/>
  <g id="_1315566688">
   <path class="fil3" d="M3598 6014l-117 -947c-23,-136 -158,-127 -176,0l-117 947 0 0 2 -2 0 0 2 -2 0 0 2 -2 1 0 2 -2 1 0 2 -2c2,-1 3,-2 5,-4l1 0 1 -1 2 -1c2,-1 4,-2 5,-4l0 0 1 -1 2 -1 0 0c2,-1 3,-2 5,-3l1 0 2 -1 1 -1c2,-1 4,-2 6,-3l0 0 2 -1 0 0 2 -1 1 -1 0 0 3 -1 0 0 2 -1 1 0 2 -1 1 0 0 0c4,-2 8,-4 12,-6l3 -1 0 0 3 -1 0 0 3 -1 0 0 3 -1 0 0 3 -1 3 -1 0 0 3 -1 0 0 3 -1c4,-2 9,-3 13,-4l1 0 3 -1 1 0 3 -1 1 0 2 -1 1 0 2 -1 0 0 3 -1 0 0 3 -1 1 0 1 0 2 0 0 0 3 -1 0 0 3 -1 1 0 2 0 1 0 2 0 2 0 1 0 2 0 0 0 3 0 0 0 2 0 1 0 2 0 1 0 2 0 1 0 2 0 1 0 3 0 1 0 3 0 1 0 3 0 1 0 3 0 1 0 3 0 1 0 3 0 0 0 3 0 0 0 3 0 0 0 4 0 0 0 4 0 4 0 0 0 4 0 0 0 3 0 0 0 3 0 0 0 3 0 1 0 3 0 1 0 3 0 1 0 3 0 1 0 3 0 1 0 3 0 1 0 2 0 1 0 2 0 1 0 2 0 1 0 2 0 0 0 3 0 0 0 2 0 1 0 2 0 2 0 1 0 2 0 1 0 2 0 0 0 3 1 0 0 1 0 1 0 3 1 2 1 1 0 1 0 2 1 0 0 2 1 1 0 2 1 1 0 3 1 1 0 3 1 1 0 3 1 1 0 3 1 1 0 3 1 0 0 3 1 0 0 3 1 0 0 3 1 0 0 3 1 0 0 3 1 0 0 3 1 0 0 3 1 0 0 3 1 5 2 1 0 1 0 3 1 1 0 2 1 1 0 2 1 3 2 0 0 3 1 0 0 1 1 2 1 0 0 3 2 0 0 3 1 1 0 2 1 1 0c3,2 6,3 8,5l0 0c2,1 4,2 5,3l0 0 2 2 0 0 3 2 0 0 2 1 1 1 2 1 1 1 2 1 1 1 2 2 1 0 2 2 1 0 0 0 2 2 2 2 0 0 2 2 0 0z"/>
   <path class="fil3" d="M4096 5969l-37 -315c-23,-200 -47,-402 -70,-606 -11,-69 -51,-100 -91,-98 -40,2 -80,38 -89,104 -27,209 -53,417 -79,624l-42 328c27,-24 58,-45 92,-60 36,-16 75,-27 115,-31 40,-3 78,1 113,11 32,9 62,24 88,43z"/>
   <path class="fil3" d="M4567 5904l-2 -16c-10,-99 -20,-199 -30,-299 -10,-102 -20,-205 -31,-309 -10,-104 -21,-210 -31,-316 -10,-71 -48,-99 -86,-91 -38,8 -75,51 -84,121 -13,111 -26,220 -38,328 -12,108 -25,214 -37,320 -12,104 -24,208 -36,310l-2 17c25,-26 53,-48 83,-65 33,-19 69,-33 106,-39 37,-6 73,-5 106,2 30,7 58,20 82,37z"/>
   <path class="fil3" d="M4935 5783l-1 -16c-9,-98 -18,-198 -27,-298 -9,-101 -18,-204 -28,-307 -9,-104 -19,-209 -28,-314 -9,-71 -38,-97 -67,-87 -29,10 -57,55 -63,125 -8,111 -17,221 -25,330 -8,108 -16,215 -24,322 -8,105 -16,209 -24,312l-1 17c19,-27 40,-50 63,-69 25,-20 52,-36 81,-44 29,-8 56,-9 81,-2 23,6 45,17 64,33z"/>
   <path class="fil3" d="M5240 5625l-1 -16c-8,-97 -15,-195 -23,-294 -8,-100 -16,-201 -24,-304 -8,-103 -16,-206 -25,-310 -8,-70 -32,-92 -56,-78 -24,14 -47,63 -51,134 -6,112 -13,223 -19,333 -6,109 -12,218 -19,325 -6,106 -12,211 -18,315l-1 17c15,-29 33,-56 51,-78 21,-24 43,-43 66,-55 23,-12 46,-16 67,-14 19,3 37,11 52,24z"/>
   <path class="fil3" d="M5477 5477l-1 -16c-6,-97 -11,-195 -17,-294 -6,-100 -12,-201 -17,-304 -6,-103 -12,-206 -18,-310 -5,-70 -23,-92 -40,-78 -17,14 -34,63 -37,134 -5,112 -9,223 -14,333 -4,109 -9,218 -13,325 -4,106 -9,211 -13,315l-1 17c11,-29 23,-56 37,-78 15,-24 31,-43 48,-55 17,-12 33,-16 48,-14 14,3 27,11 38,24z"/>
   <path class="fil3" d="M1306 5456l1 -16c6,-97 11,-195 17,-294 6,-100 12,-201 17,-304 6,-103 12,-206 18,-310 5,-70 23,-92 40,-78 17,14 34,63 37,134 5,112 9,223 14,333 4,109 9,218 13,325 4,106 9,211 13,315l1 17c-11,-29 -23,-56 -37,-78 -15,-24 -31,-43 -48,-55 -17,-12 -33,-16 -48,-14 -14,3 -27,11 -38,24z"/>
   <path class="fil3" d="M1178 5295l0 -16c3,-97 5,-195 8,-294 3,-100 6,-201 9,-304 3,-103 6,-206 9,-310 3,-70 11,-92 20,-78 8,14 17,63 18,134 2,112 5,223 7,333 2,109 4,218 7,325 2,106 4,211 6,315l0 17c-5,-29 -12,-56 -18,-78 -7,-24 -15,-43 -24,-55 -8,-12 -16,-16 -24,-14 -7,3 -13,11 -19,24z"/>
   <path class="fil3" d="M5615 5295l0 -16c-3,-97 -5,-195 -8,-294 -3,-100 -6,-201 -9,-304 -3,-103 -6,-206 -9,-310 -3,-70 -11,-92 -20,-78 -8,14 -17,63 -18,134 -2,112 -5,223 -7,333 -2,109 -4,218 -7,325 -2,106 -4,211 -6,315l0 17c5,-29 12,-56 18,-78 7,-24 15,-43 24,-55 8,-12 16,-16 24,-14 7,3 13,11 19,24z"/>
   <path class="fil3" d="M1542 5624l1 -15c8,-97 15,-195 23,-294 8,-100 16,-201 24,-304 8,-103 16,-206 25,-310 8,-70 32,-92 56,-78 24,14 47,63 51,134 6,112 13,223 19,333 6,109 12,218 18,325 6,106 12,211 18,315l1 17c-15,-29 -33,-56 -51,-78 -21,-24 -43,-43 -66,-55 -23,-12 -46,-16 -67,-14 -19,3 -37,11 -52,24z"/>
   <path class="fil3" d="M1850 5783l1 -16c9,-98 18,-198 27,-298 9,-101 18,-204 28,-307 9,-104 19,-209 28,-314 9,-71 38,-97 67,-87 29,10 57,55 63,125 8,111 17,221 25,330 8,108 16,215 24,322 8,105 16,209 24,312l1 17c-19,-27 -40,-50 -63,-69 -25,-20 -52,-36 -81,-44 -29,-8 -56,-9 -81,-2 -23,6 -45,17 -63,33z"/>
   <path class="fil3" d="M2217 5902l2 -16c10,-99 20,-198 30,-299 10,-102 20,-204 31,-308 10,-104 21,-209 31,-315 10,-71 48,-99 86,-91 38,8 75,51 84,121 13,110 26,219 38,327 12,107 25,214 37,319 12,104 24,207 36,309l2 17c-25,-26 -53,-48 -83,-65 -33,-19 -69,-32 -106,-39 -37,-6 -73,-5 -106,2 -30,7 -58,20 -82,37z"/>
   <path class="fil3" d="M2689 5973l37 -319c23,-200 47,-402 70,-606 11,-69 51,-100 91,-98 40,2 80,38 89,104 27,209 53,417 79,624l42 333c-28,-25 -59,-45 -92,-60 -36,-16 -75,-27 -115,-31 -40,-3 -78,1 -113,11 -32,9 -62,24 -88,43z"/>
  </g>
  <path class="fil2" d="M3313 2928c540,-7 1049,67 1447,198 415,136 726,336 818,576 99,257 -68,508 -436,704 -386,206 -980,343 -1670,352 -691,9 -1308,-111 -1729,-306 -401,-185 -610,-433 -556,-691 51,-241 325,-450 715,-596 375,-140 870,-229 1410,-236z"/>
  <polygon class="fil4" points="3608,516 3783,523 3512,3671 3338,3664 "/>
  <path class="fil4" d="M3405 3854c96,1 187,-13 258,-39 74,-27 129,-67 146,-114 18,-51 -12,-101 -78,-140 -69,-41 -175,-68 -298,-70 -123,-2 -233,22 -308,61 -71,37 -109,86 -99,137 9,48 58,89 127,119 67,28 155,45 251,47z"/>
  <path class="fil3" d="M3409 3807c79,1 153,-10 211,-29 60,-20 106,-49 119,-84 14,-37 -10,-74 -63,-103 -56,-30 -143,-50 -243,-51 -101,-1 -190,16 -252,45 -58,27 -89,63 -81,101 7,35 47,66 104,87 55,20 127,33 205,34z"/>
  <g id="_1322279648">
   <g>
    <path id="path17625" class="fil5" d="M3720 679c-3,0 -4,-3 -5,0 1,0 2,1 0,2 -2,-2 -6,-2 -3,-5 -7,0 -6,0 -14,-1 -1,8 8,0 5,8 5,-1 6,-3 12,0 0,-2 3,-1 3,-3l0 0zm41 168c3,8 4,-5 0,0l0 0zm7 -7c0,-1 0,-2 0,-3 -2,0 -3,0 -5,0 0,1 0,2 0,3 2,0 3,0 5,0zm5 -36c3,3 5,-5 2,-4 0,1 0,2 -2,1 0,1 0,2 0,3zm12 -40c1,-6 4,-16 0,-20 0,6 -3,16 0,20zm45 51c-1,3 -4,-4 -7,-4 3,6 9,14 3,20 -2,-3 0,-9 -5,-10 -3,2 0,5 2,6 -4,0 -10,-9 -16,-12 -1,4 8,6 5,14 -3,-2 -4,-4 -7,-5 5,8 14,11 18,20 -6,3 -2,10 -4,15 -5,1 -2,-5 -2,-8 -6,5 -10,-2 -15,-6 -3,1 3,6 4,8 -1,3 -3,3 -5,1 2,6 9,9 12,13 -1,7 -1,14 -3,18 -5,-2 -10,-5 -13,-9 -2,0 1,3 -2,3 2,0 5,6 -2,3 1,6 6,9 11,12 1,5 -1,8 0,15 -2,3 -8,-5 -5,1 -3,3 -8,-4 -12,-6 -4,-1 1,10 -5,7 9,6 17,12 11,25 -7,1 1,-3 -3,-3 -2,0 -2,4 0,5 -2,2 -8,-4 -12,-6 0,5 1,3 -5,7 4,4 9,7 14,10 -3,3 1,6 1,11 -2,2 -9,4 -7,5 -3,2 -8,-5 -13,-6 -2,0 2,7 -5,6 5,8 19,8 16,23 -5,-2 -7,2 -7,7 -4,-3 -10,-4 -13,-7 -7,2 -1,8 -9,4 4,7 15,9 21,14 -2,5 2,7 -1,9 -3,3 -4,0 -7,-1 0,3 -3,9 2,8 -7,2 -13,-6 -21,-6 -9,0 -10,6 -19,7 -4,-13 -7,-22 -3,-37 5,9 2,-7 5,-21 2,-9 5,-20 7,-24 0,0 3,0 3,0 0,-1 -2,-1 -3,-2 8,-20 18,-57 21,-83 -2,12 -12,26 -13,44 -4,-7 3,-19 6,-30 2,-8 1,-16 6,-21 4,-1 3,3 6,4 2,-6 -5,-4 -5,-8 2,-9 6,-15 7,-25 2,1 0,5 3,5 -1,-5 1,-21 4,-30 1,-3 -1,-3 -3,-3 4,-5 10,-12 8,-19 10,3 -3,11 0,21 4,-7 6,-18 8,-28 -6,-2 -2,8 -8,5 4,-5 -5,-10 2,-19 -4,-2 -3,-9 -8,-10 0,-2 3,-1 5,-1 -6,-5 -12,-11 -17,-12 7,-3 -4,-3 1,-9 -1,-3 -6,-2 -9,-4 1,-7 -10,-10 -5,-16 -3,0 -3,2 -6,1 -5,-11 -22,-11 -32,-18 -5,2 -7,6 -9,11 -7,7 -24,12 -30,0 1,-6 3,-9 6,-13 4,2 -3,5 -1,9 6,-9 16,-15 23,-24 -5,2 -3,2 -11,1 25,-7 48,9 67,16 -12,2 -27,-6 -43,-5 -3,6 7,1 4,6 12,-1 23,3 37,8 9,3 13,11 21,15 7,3 14,6 20,12 10,10 16,30 23,46 3,7 4,20 7,29 -4,3 -8,-6 -13,-7 7,8 17,14 22,23m0 0l0 0 0 0z"/>
    <path id="path17627" class="fil5" d="M3785 745c4,3 1,14 0,20 -3,-4 1,-14 0,-20z"/>
    <path id="path17629" class="fil5" d="M3775 800c3,0 2,7 -2,4 0,-1 0,-2 0,-3 1,0 1,0 2,-1z"/>
    <path id="path17631" class="fil5" d="M3768 838c0,1 0,2 0,3 -2,0 -3,0 -5,0 0,-1 0,-2 0,-3 2,0 3,0 5,0z"/>
    <path id="path17633" class="fil5" d="M3762 848c4,-5 3,8 0,0l0 0z"/>
    <path id="path17635" class="fil5" d="M3504 999c1,-2 0,-6 -1,-3 -1,2 0,6 1,3zm50 -88c1,-2 6,-7 2,-9 0,3 -5,8 -2,9zm-1 69c1,-2 0,-6 -1,-3 -1,2 0,6 1,3zm9 -93c2,-4 6,-13 4,-16 -2,3 -9,16 -4,16zm21 -81c-1,5 4,18 3,14 -2,-4 2,-13 -3,-14zm18 -104c-2,0 -3,-1 -4,-2 0,3 -3,4 0,4 1,-3 4,3 5,-3zm-13 94c6,0 7,-14 6,-16 -5,2 -4,11 -6,16zm11 -28c-2,-6 7,-15 1,-16 1,7 -7,14 -1,16zm6 -31c4,3 5,-6 2,-6 0,3 -1,5 -2,6zm9 -54c-1,-2 6,-3 2,-4 0,2 -7,2 -2,4zm-45 368c5,4 11,11 17,9 -2,-5 -8,-6 -13,-10 -9,-8 -21,-22 -24,-35 -1,-4 1,-16 -2,-14 -1,8 3,15 -3,19 5,13 15,23 25,31l0 0zm47 -357c0,-2 3,-3 0,-5 0,2 -3,3 0,5zm-37 461c1,-2 0,-6 -1,-3 -1,2 0,6 1,3zm14 -292c2,5 11,10 17,8 0,-7 -11,-6 -17,-8zm27 -168c2,-5 9,-12 7,-16 -1,6 -11,10 -7,16zm-24 225c1,10 10,1 17,8 -2,-6 -11,-6 -17,-8zm20 -80c1,0 2,-1 2,-3 -5,-2 -10,-3 -18,-5 0,2 -1,5 1,6 4,-1 13,5 18,3 -1,0 -3,0 -3,-2zm-16 234c0,-1 0,-2 0,-3 -1,0 -2,0 -3,0 0,1 0,2 0,3 1,0 2,0 3,0zm26 -264c-3,-1 1,-2 2,-3 -2,0 -5,0 -4,-3 -8,2 -5,-5 -16,-1 2,0 1,2 0,3 6,1 12,9 19,5zm-37 444c0,-1 0,-9 -1,-5 -2,6 0,8 1,5zm49 -558c0,-5 10,-9 3,-13 0,4 -6,10 -3,13zm-23 80c6,0 24,10 21,0 -1,8 -6,-1 -6,-4 -3,1 -10,-3 -11,1 5,3 -6,-1 -5,3zm-26 286c9,3 19,13 28,11 -11,-2 -20,-12 -28,-11zm54 -313c0,-2 0,-4 1,-6 -5,-1 -10,3 -14,0 1,0 2,-1 0,-2 -1,2 -2,3 -2,6 5,0 10,1 15,1zm8 -36c0,2 2,8 3,5 -2,-3 1,-3 -1,-6 -2,0 -4,0 -6,-1 1,5 -3,3 -4,6 3,0 3,2 6,2 0,-2 0,-6 2,-6zm-37 464c0,2 -3,3 1,3 -3,-6 -1,-16 -11,-16 1,7 0,16 9,13l0 0zm15 -103c-5,0 -5,-3 -10,-2 -2,5 10,5 10,2zm132 -303c-2,9 6,1 0,0l0 0zm-255 242c1,-6 6,17 16,20 -12,-1 -19,-24 -29,-27 0,-2 1,-3 2,-3 -1,-2 -3,0 -4,-3 4,-20 -1,-27 8,-40 8,1 5,12 4,20 3,0 1,-6 2,-9 4,6 4,-9 4,-9 0,0 3,2 3,2 1,-2 -3,-8 0,-12 2,-3 5,-3 8,-7 -1,-3 -8,-1 -12,-3 0,-6 7,-14 -3,-14 5,-4 10,-7 20,-4 3,1 -1,-11 7,-8 -2,-4 -10,-1 -15,-3 2,-9 1,-9 0,-17 7,-2 22,-2 19,-10 -1,-3 -8,-1 -12,-3 5,-6 -2,-10 1,-15 -13,2 10,-5 17,-5 2,-3 0,-6 4,-9 0,-2 -9,0 -13,-1 2,-9 -2,-14 8,-19 6,1 11,4 10,11 2,-5 -1,-22 7,-25 -3,-3 -8,6 -15,3 6,-4 -4,-9 1,-13 -3,-1 -5,0 -5,3 -8,-12 25,-3 26,-16 0,-2 -10,-3 -11,-1 0,-7 -9,-7 -8,-14 3,0 1,5 4,5 1,-2 2,-4 5,-7 -3,0 -3,2 -6,1 8,-6 23,-5 24,-15 -8,0 -6,0 -12,0 -1,-5 -8,-5 -6,-13 6,-4 -1,6 4,8 -2,-2 8,-11 2,-10 5,-7 20,-2 21,-13 -1,-2 -9,0 -12,0 0,-4 -5,-7 -1,-11 -4,0 -3,7 -6,2 1,-10 12,-9 19,-12 4,-2 5,-6 10,-7 2,-13 0,-13 3,-22 3,0 0,5 1,8 7,-3 2,-11 1,-12 4,-3 4,2 6,5 5,-6 10,-12 11,-19 -4,4 -8,8 -10,13 -1,-11 14,-18 26,-19 -3,4 -7,6 -10,10 9,-1 18,-17 37,-12 -5,3 -10,6 -13,11 12,-7 25,-12 45,-10 -3,1 -8,5 -11,2 -2,1 0,5 -4,7 0,4 3,-2 6,1 4,-2 -4,4 -8,2 3,4 -3,8 -5,10 1,10 -3,19 -3,31 0,1 1,2 1,3 43,7 72,25 102,44 2,6 0,12 -3,16 -33,-10 -61,-36 -105,-41 -4,0 -3,6 -7,7 4,4 17,8 24,5 27,14 58,25 83,40 0,3 2,3 1,6 0,4 -1,2 -3,1 -3,2 -3,8 -5,10 -34,-14 -61,-35 -102,-39 -2,1 -3,5 -4,7 4,4 17,8 21,3 -1,3 5,3 7,7 30,8 55,22 79,35 0,8 -2,13 -5,18 -7,-2 -21,-9 -35,-15 -11,-5 -26,-10 -31,-13 0,0 2,-2 2,-3 -6,4 -8,-4 -15,-3 1,-1 2,-2 2,-4 -12,8 -30,-12 -35,6 6,3 12,8 19,6 3,-1 3,-11 3,-1 24,11 62,23 86,39 1,8 0,10 -3,16 -34,-7 -77,-38 -110,-37 -3,0 -1,7 -4,7 6,4 17,8 25,5 -1,3 3,2 3,5 15,4 30,10 44,16 13,6 29,10 37,21 -2,5 -3,11 -6,15 -2,-4 -7,-1 -10,-2 -4,-2 -9,-5 -14,-7 -26,-11 -49,-24 -85,-28 -2,1 -3,5 -4,7 2,7 17,4 22,8 3,0 -1,-5 1,-9 3,4 3,7 4,11 31,9 59,20 83,34 1,5 -1,12 -4,16 -36,-7 -74,-38 -118,-34 -5,-4 -7,-3 -16,-4 7,3 1,11 16,10 4,-1 -2,-7 5,-6 0,4 -1,6 -2,7 42,11 82,23 113,43 -2,7 -4,13 -9,16 -2,-1 0,-1 0,-3 -24,-2 -54,-22 -84,-28 -2,1 -3,3 -4,6 -2,-1 -1,-3 0,-3 -6,-10 -29,-11 -36,-6 -1,2 1,3 1,5 3,1 6,0 6,-2 -2,7 20,13 26,8 2,2 3,5 5,7 30,8 56,19 82,30 2,6 -2,15 -8,17 -2,-1 8,-9 3,-15 1,3 -5,13 -6,13 -26,-3 -54,-23 -81,-25 -9,-5 -30,-12 -42,-7 2,2 8,6 0,5 6,9 8,15 4,28 -3,-1 1,-8 -2,-9 -1,2 -2,7 -4,12 4,7 9,18 5,28 3,-5 2,6 5,12 -2,-2 -3,-5 -5,-5 3,-3 -2,-5 -3,-10 1,16 16,30 31,38 -3,-6 -10,-9 -14,-13 16,8 43,38 70,24 -3,-3 -6,3 -10,-4 -1,3 -6,2 -8,5 1,-5 -16,-6 -13,-11 -2,0 -4,-1 -5,1 -4,-6 -27,-17 -32,-27 -2,0 -3,0 -3,1 -5,-3 2,-6 4,-7 -4,-5 -2,4 -8,2 -6,-18 -4,-32 7,-46 -5,1 -7,5 -8,10 -5,-1 4,-5 -1,-6 14,-17 33,6 26,28 4,-6 4,-2 1,3 4,2 0,-1 1,5 2,15 23,29 39,37 4,2 8,1 12,3 4,2 6,6 8,7 2,1 6,-3 3,2 4,-1 7,-3 11,-4 -3,4 -7,6 -10,10 7,5 15,10 26,11 -14,1 -38,0 -49,-6 -3,0 -4,4 -4,7 -1,7 -1,-18 -9,-4 1,-2 0,7 -1,9 -5,12 -15,45 -19,66 -1,4 -2,6 -2,9 1,16 10,14 15,24 4,0 8,1 12,1 -29,-3 -27,-47 -10,-63 -2,-21 32,-19 43,-7 -7,3 3,7 5,11 -8,-6 -21,-6 -28,-11 3,-2 7,-3 12,-2 -12,-8 -37,9 -39,27 3,0 2,-6 6,-4 -7,11 7,15 5,26 -7,0 -7,-8 -13,-9 -4,19 13,24 31,31 -5,7 -13,7 -20,6 -11,-2 -16,-12 -25,-13 5,3 5,9 10,11 0,35 -8,75 -11,109 0,2 3,1 3,3 -3,4 1,12 -4,12 -7,-1 2,-5 1,-9 0,-31 -2,-64 1,-100 0,-4 3,-6 2,-10 -1,-11 -8,-19 -11,-30 -5,-14 2,-36 7,-48 -1,-2 -8,-2 -11,2 -4,-1 2,-3 1,-6 -5,-2 -11,3 -12,-4 -4,4 -7,9 -7,16 3,0 10,2 16,3 -1,3 -3,3 -5,1 -1,8 5,15 1,21 6,-2 3,-16 6,-22 0,-1 -2,-5 -3,-5 6,-6 6,14 3,26 -1,4 -4,6 -5,10 -2,8 3,22 -3,16 0,4 3,6 5,8 -2,17 1,26 -5,40 -1,4 7,0 6,4 1,4 -3,1 -3,1 -2,5 1,12 0,18 0,3 -3,2 -3,3 -1,3 1,6 1,9 -1,7 -5,14 -9,17 0,-40 3,-81 -1,-128 -2,0 -2,4 -2,6 -3,-4 -5,-9 -5,-10 -1,-1 1,-3 0,-3 -3,-3 -15,-1 -9,-20 -3,4 -4,10 -4,16 -6,-8 2,-22 4,-30 3,1 0,8 0,12 7,-17 9,-40 14,-58 1,-2 1,-4 3,-4 -24,-16 -51,-31 -57,-62 -3,6 -2,8 -2,10 0,3 5,-2 4,5 3,2 0,2 -1,0 0,-1 0,-2 0,-3 -1,1 0,2 0,3 3,18 33,33 44,43 -25,-15 -54,-28 -61,-58 -2,0 -3,9 -3,1 -4,1 1,5 1,8l0 0zm320 -236c0,-1 0,-2 0,-3 0,1 0,2 0,3z"/>
    <path id="path17637" class="fil5" d="M3762 772c6,1 -2,9 0,0l0 0z"/>
    <path id="path17639" class="fil5" d="M3756 805c2,0 -1,10 -5,9 1,-4 3,-7 5,-9z"/>
    <path id="path17641" class="fil5" d="M3741 908c3,3 0,14 -4,15 0,-7 4,-8 4,-15z"/>
    <path id="path17643" class="fil5" d="M3698 1378c5,0 2,15 0,17 -11,12 -38,13 -56,6 3,-5 11,-7 17,-9 6,-2 12,-6 17,-8 7,-2 17,2 22,-6m0 0l0 0 0 0z"/>
    <path id="path17645" class="fil5" d="M3738 926c-2,12 -5,25 -9,38 -1,-11 7,-29 6,-40 2,0 3,1 3,2m0 0l0 0 0 0z"/>
    <path id="path17647" class="fil5" d="M3726 967c1,-4 1,4 1,5 -1,3 -3,1 -1,-5z"/>
    <path id="path17649" class="fil5" d="M3731 917c0,2 -2,1 -2,0 -1,0 -1,2 -2,3 -2,-1 -1,-3 -3,-3 1,-2 3,-2 3,-4 0,2 1,4 3,5m0 0l0 0 0 0z"/>
    <path id="path17651" class="fil5" d="M3728 923c4,1 -2,3 -1,6 -4,-1 0,-5 1,-6z"/>
    <path id="path17653" class="fil5" d="M3729 912c0,0 0,0 0,1 0,-1 0,-1 0,-1z"/>
    <path id="path17655" class="fil5" d="M3680 1301c1,-4 6,0 4,3 -3,1 -2,-3 -4,-3z"/>
    <path id="path17657" class="fil5" d="M3666 1182c-1,-15 -10,-23 -15,-35 0,-2 -2,-1 -3,0 -7,17 -4,42 18,35l0 0zm6 -49c8,6 12,20 6,34 4,-16 -6,-37 -23,-28 6,12 12,24 18,35 -4,4 -2,6 -1,12 -7,1 -9,1 -17,3 -19,-5 -15,-40 -2,-50 1,-6 -7,-6 -7,-11 1,-1 3,-1 3,-3 5,1 7,6 10,10 3,-1 6,-3 12,-2m0 0l0 0 0 0z"/>
    <path id="path17659" class="fil5" d="M3716 679c1,-2 2,1 5,0 -1,2 -3,1 -3,3 -6,-2 -7,-1 -12,0 3,-8 -6,0 -5,-8 7,1 6,1 14,1 -3,3 0,3 3,5 2,0 1,-1 0,-2m0 0l0 0 0 0z"/>
    <path id="path17661" class="fil5" d="M3587 1366c1,-8 -8,-12 -5,-17 -1,0 -2,0 -3,0 -1,0 -2,0 -2,1 2,1 0,2 -2,0 0,2 0,4 -1,6 6,2 -1,-3 3,-3 2,0 1,3 1,5 -2,0 -4,-1 -5,1 3,3 3,8 8,8 0,-1 1,-2 3,-1l0 0zm-6 2c0,4 6,9 8,7 -2,0 -2,-2 -3,-3 1,0 2,-1 0,-2 -1,4 -4,-2 -6,-2l0 0zm8 -19c-2,3 6,0 5,-1 -1,-1 -4,1 -5,1zm4 -6c1,-2 2,-3 2,-6 -5,-2 -6,1 -8,2 1,-8 -1,-2 -3,-2 0,0 0,-5 -1,-5 -1,0 0,5 -2,4 -3,-1 -2,-3 -4,-5 -6,7 8,5 10,10 -1,0 -2,0 -2,1 6,2 2,-7 8,-5 0,2 -3,3 0,5l0 0zm4 25c-6,-6 -4,5 0,0l0 0zm2 -25c1,1 5,4 6,1 -6,2 0,-5 -4,-5 0,2 -2,2 -2,4 0,1 -2,-5 -3,-5 -2,2 2,9 3,5zm0 35c2,2 4,2 5,-1 -2,0 -2,-2 -4,-2 0,1 0,2 0,3l0 0zm7 -24c2,-5 -10,-5 -10,-2 6,3 6,0 10,2zm-5 3c1,10 13,-2 4,3 0,-2 -3,-2 -4,-3zm6 16c0,-1 0,-2 0,-3 -2,0 -3,0 -5,0 0,1 0,2 0,3 2,0 3,0 5,0zm2 -9c-5,5 5,5 0,0l0 0zm2 12c-4,0 -3,2 -6,-1 0,2 -1,3 -2,4 4,0 5,-2 8,-4l0 0zm4 -13c0,-2 1,-4 -1,-5 -5,4 -3,3 1,5zm4 8c-3,1 -10,-3 -11,1 4,2 7,3 11,-1zm0 -3c0,-1 0,-2 0,-3 -1,0 -2,0 -3,0 0,1 0,2 0,3 1,0 2,0 3,0zm-1 -6c3,0 7,2 6,-2 -3,0 -5,1 -6,2zm7 8c-8,3 5,4 0,0l0 0zm4 9c-2,-4 -4,2 -4,-2 3,-4 -5,2 -6,2 2,-6 -3,2 -6,-4 2,6 -5,0 -5,4 8,1 16,1 21,-1zm-3 -18c2,1 12,1 9,-4 -2,3 -8,1 -9,4zm11 12c1,-7 -4,0 -6,-4 -1,7 4,0 6,4zm-12 -6c9,-1 19,-1 23,-7 -6,3 -18,3 -23,7zm14 12c0,-1 0,-2 0,-3 -2,0 -2,-1 -3,-2 0,2 -1,5 3,5zm-1 -20c4,0 8,0 8,-4 -3,1 -8,-1 -8,4zm1 11c5,1 13,-2 10,-5 -2,3 -8,2 -10,5zm11 -20c-2,5 1,13 5,8 -10,-2 3,-16 -3,-23 -4,3 -8,5 -11,1 0,7 -9,4 -13,6 0,-2 1,-5 -3,-5 4,8 -8,5 -16,5 0,4 -1,9 -1,13 16,1 29,-1 40,-6l0 0 0 0zm4 -16c11,13 3,30 -5,42 -5,0 -4,-3 -8,-1 6,7 -4,5 -10,7 1,-2 3,-1 3,-3 0,-2 -3,1 -3,-2 -3,0 -1,5 -4,6 -9,0 -19,0 -30,-1 1,-4 -5,-4 -1,-8 -5,1 -2,4 -2,7 -9,-4 -21,-6 -23,-16 2,2 3,4 6,5 0,-7 -9,-6 -6,-16 1,0 1,2 3,2 -2,-6 -1,-6 -2,-14 2,0 2,2 4,2 2,-6 -6,-4 -5,-10 8,0 0,-5 1,-8 5,0 6,4 9,5 0,-4 -4,-5 -7,-7 3,-4 9,4 15,6 8,3 22,3 34,4 -2,2 -1,2 0,5 2,0 2,-4 2,-6 12,2 17,-5 29,-2l0 0zm-52 32c0,0 0,0 0,0 0,0 0,0 0,0zm52 -32c0,0 0,0 0,0 0,0 0,0 0,0zm30 -28l1 0 1 0 0 0c0,0 0,0 0,0 0,0 -1,0 -1,0 0,0 -1,0 -1,0zm-1 0l1 0c0,0 -1,0 -1,0z"/>
    <path id="path17663" class="fil5" d="M3654 1356c-4,5 -8,-3 -5,-8 -11,5 -24,7 -40,6 0,-5 1,-9 1,-13 7,0 19,3 16,-5 3,0 3,2 3,5 4,-2 12,0 13,-6 3,4 7,2 11,-1 6,7 -7,21 3,23m0 0l0 0 0 0z"/>
    <path id="path17665" class="fil5" d="M3648 1363c4,4 -5,7 -10,5 2,-3 8,-2 10,-5z"/>
    <path id="path17667" class="fil5" d="M3646 1354c0,4 -4,4 -8,4 0,-5 5,-3 8,-4z"/>
    <path id="path17669" class="fil5" d="M3651 1148c5,11 14,20 15,35 -22,7 -25,-18 -18,-35 1,-1 3,-2 3,0m0 0l0 0 0 0z"/>
    <path id="path17671" class="fil5" d="M3639 1399c7,8 -8,6 -9,13 -7,-2 -5,-1 2,-4 -2,-2 -11,1 -14,3 -2,-1 1,-2 0,-5 -1,0 -2,0 -3,0 -2,0 -1,1 0,1 0,2 -3,1 -5,1 0,3 -1,6 -1,9 -4,0 -7,0 -9,-2 7,-3 -1,-4 2,-7 -1,0 -2,0 -3,0 -2,8 -17,0 -19,-8 16,1 44,8 57,-1m0 0l0 0 0 0z"/>
    <path id="path17673" class="fil5" d="M3636 1329c-3,-2 6,-3 9,-2 -2,2 -7,1 -9,2z"/>
    <path id="path17675" class="fil5" d="M3639 1375c0,1 0,2 0,3 -3,0 -3,-2 -3,-5 1,0 1,2 3,2z"/>
    <path id="path17677" class="fil5" d="M3646 1242c-4,-1 3,-3 5,-3 -1,1 -3,2 -5,3z"/>
    <path id="path17679" class="fil5" d="M3648 1359c-4,6 -14,6 -23,7 5,-4 18,-4 23,-7z"/>
    <path id="path17681" class="fil5" d="M3631 1368c1,4 7,-3 6,4 -1,-4 -7,3 -6,-4z"/>
    <path id="path17683" class="fil5" d="M3635 1356c2,4 -7,5 -9,4 2,-3 8,-1 9,-4z"/>
    <path id="path17685" class="fil5" d="M3630 1412c0,0 0,0 0,0 0,0 0,0 0,0 0,0 0,0 0,0z"/>
    <path id="path17687" class="fil5" d="M3630 1412c0,0 0,1 0,1 -2,0 -1,-1 0,-1z"/>
    <path id="path17689" class="fil5" d="M3635 1337l0 0c0,0 0,0 0,0z"/>
    <path id="path17691" class="fil5" d="M3635 1337l-1 0c0,0 1,0 1,0z"/>
    <path id="path17693" class="fil5" d="M3634 1336l-1 0c0,0 0,0 1,0z"/>
    <path id="path17695" class="fil5" d="M3633 1336l-1 0c0,0 0,0 1,0z"/>
    <path id="path17697" class="fil5" d="M3689 674c0,2 0,3 0,5 -4,-1 -3,3 -6,2 -2,4 3,-7 7,-7z"/>
    <path id="path17699" class="fil5" d="M3624 1376c1,3 3,-2 4,2 -5,3 -13,2 -21,1 0,-4 7,1 5,-4 3,6 8,-3 6,4 2,-1 9,-6 6,-2z"/>
    <path id="path17701" class="fil5" d="M3625 1369c5,4 -8,3 0,0l0 0z"/>
    <path id="path17703" class="fil5" d="M3624 1358c1,5 -4,2 -6,2 1,-2 3,-3 6,-2z"/>
    <path id="path17705" class="fil5" d="M3619 1364c0,1 0,2 0,3 -1,0 -2,0 -3,0 0,-1 0,-2 0,-3 1,0 2,0 3,0z"/>
    <path id="path17707" class="fil5" d="M3608 1371c1,-3 7,0 11,-1 -4,3 -6,3 -11,1z"/>
    <path id="path17709" class="fil5" d="M3641 1071c0,0 0,0 0,-1 0,0 0,0 0,1z"/>
    <path id="path17711" class="fil5" d="M3614 1357c2,0 1,3 1,5 -4,-2 -6,-1 -1,-5z"/>
    <path id="path17713" class="fil5" d="M3604 1375c3,3 2,0 6,1 -2,2 -4,4 -8,4 1,-1 2,-2 2,-4m0 0l0 0 0 0z"/>
    <path id="path17715" class="fil5" d="M3609 1363c5,5 -5,5 0,0l0 0z"/>
    <path id="path17717" class="fil5" d="M3604 1329c0,-3 6,0 9,-1 0,3 -6,0 -9,1z"/>
    <path id="path17719" class="fil5" d="M3606 1369c0,1 0,2 0,3 -2,0 -3,0 -5,0 0,-1 0,-2 0,-3 2,0 3,0 5,0z"/>
    <path id="path17721" class="fil5" d="M3604 1360c8,-6 -3,7 -4,-3 1,1 4,1 4,3z"/>
    <path id="path17723" class="fil5" d="M3620 1073c5,-1 6,3 10,2 -1,2 -13,2 -10,-2z"/>
    <path id="path17725" class="fil5" d="M3594 1351c1,-2 13,-2 10,2 -4,-3 -5,0 -10,-2z"/>
    <path id="path17727" class="fil5" d="M3603 1364c0,0 0,0 0,0 0,0 0,0 0,0z"/>
    <path id="path17729" class="fil5" d="M3603 1376c-1,3 -3,3 -5,1 0,-1 0,-2 0,-3 2,0 2,2 4,2m0 0l0 0 0 0z"/>
    <path id="path17731" class="fil5" d="M3602 1364c0,0 0,0 0,0 0,0 0,0 0,0z"/>
    <path id="path17733" class="fil5" d="M3582 1409c4,-3 10,5 16,4 -6,5 -11,-4 -16,-4z"/>
    <path id="path17735" class="fil5" d="M3604 1343c-1,4 -5,0 -6,-1 0,-2 2,-2 2,-4 4,0 -1,7 4,5z"/>
    <path id="path17737" class="fil5" d="M3617 1181c-4,0 -2,-1 -1,-3 -9,3 -8,-6 -9,-13 9,1 8,10 11,16z"/>
    <path id="path17739" class="fil5" d="M3655 719c-1,4 -3,-3 -3,-5 -2,0 -2,4 -2,6 -3,0 -3,-2 -6,-2 1,-2 5,-1 4,-6 2,0 4,0 6,1 2,3 -1,3 1,6z"/>
    <path id="path17741" class="fil5" d="M3627 1025c-1,4 -5,0 -3,-3 2,1 1,3 3,3z"/>
    <path id="path17743" class="fil5" d="M3596 1338c0,0 2,5 3,5 -1,4 -5,-3 -3,-5z"/>
    <path id="path17745" class="fil5" d="M3596 1368c-4,5 -6,-6 0,0l0 0z"/>
    <path id="path17747" class="fil5" d="M3594 1338c0,3 -1,4 -2,6 -3,-1 0,-3 0,-5 -6,-2 -2,7 -8,5 0,-1 1,-1 2,-1 -1,-5 -16,-3 -10,-10 2,2 1,4 4,5 2,1 1,-4 2,-4 2,-1 1,5 1,5 2,-1 4,-6 3,2 2,-2 3,-4 8,-2m0 0l0 0 0 0z"/>
    <path id="path17749" class="fil5" d="M3593 1348c1,1 -6,4 -5,1 0,0 3,-3 5,-1z"/>
    <path id="path17751" class="fil5" d="M3645 744c0,2 0,4 -1,6 -5,0 -10,-1 -15,-1 0,-3 1,-4 2,-6 2,0 1,2 0,2 4,3 9,-1 14,0z"/>
    <path id="path17753" class="fil5" d="M3618 1074c-9,2 -19,-8 -28,-11 8,-1 17,10 28,11z"/>
    <path id="path17755" class="fil5" d="M3589 1375c-2,3 -9,-3 -8,-7 2,0 5,6 6,2 2,0 1,2 0,2 1,1 1,3 3,3m0 0l0 0 0 0z"/>
    <path id="path17757" class="fil5" d="M3592 1273c1,-5 6,9 2,0 0,0 -2,0 -2,0z"/>
    <path id="path17759" class="fil5" d="M3591 1291c-3,-11 7,9 2,0 0,0 -1,0 -2,0z"/>
    <path id="path17761" class="fil5" d="M3638 776c3,10 -15,-1 -21,0 -1,-3 10,0 5,-3 1,-3 7,0 11,-1 0,3 4,11 6,4z"/>
    <path id="path17763" class="fil5" d="M3581 1365c8,2 1,-10 1,-8 1,5 1,3 -1,8zm1 -16c-4,5 6,9 5,17 -2,0 -3,0 -3,1 -6,0 -5,-6 -8,-8 0,-2 3,-1 5,-1 0,-2 1,-4 -1,-5 -4,0 3,4 -3,3 0,-2 0,-4 1,-6 2,2 4,1 2,0 0,-1 1,-1 2,-1 1,0 2,0 3,0m0 0l0 0 0 0z"/>
    <path id="path17765" class="fil5" d="M3585 1388c-6,0 -3,-9 -8,-10 5,-4 9,5 8,10z"/>
    <path id="path17767" class="fil5" d="M3588 1321c3,0 -4,6 4,5 -4,5 -21,-6 -20,-15 3,2 3,8 7,10 6,-1 1,-5 4,-7 4,0 1,6 6,5 0,3 -5,0 -6,2 -1,2 7,3 6,1z"/>
    <path id="path17769" class="fil5" d="M3589 1313c4,-5 3,8 0,0l0 0z"/>
    <path id="path17771" class="fil5" d="M3643 683c7,4 -3,8 -3,13 -4,-3 3,-9 3,-13z"/>
    <path id="path17773" class="fil5" d="M3582 1358c0,-2 8,10 -1,8 1,-5 1,-3 1,-8z"/>
    <path id="path17775" class="fil5" d="M3590 1250c1,-4 1,4 1,5 -1,3 -3,1 -1,-5z"/>
    <path id="path17777" class="fil5" d="M3629 807c-1,1 -4,2 -2,3 -7,4 -14,-3 -19,-5 1,-1 2,-3 0,-3 11,-3 9,3 16,1 -1,3 2,3 4,3z"/>
    <path id="path17779" class="fil5" d="M3582 1288c5,-1 2,5 2,8 -3,-1 -3,-4 -2,-8z"/>
    <path id="path17781" class="fil5" d="M3602 1071c0,1 0,2 0,3 -1,0 -2,0 -3,0 0,-1 0,-2 0,-3 1,0 2,0 3,0z"/>
    <path id="path17783" class="fil5" d="M3596 1134c0,0 -1,1 -1,2 0,-1 1,-1 1,-2z"/>
    <path id="path17785" class="fil5" d="M3613 995c-7,-2 -6,-10 -12,-13 9,-6 13,4 12,13z"/>
    <path id="path17787" class="fil5" d="M3619 837c0,2 -1,3 -2,3 0,1 2,1 3,2 -5,2 -14,-4 -18,-3 -2,-1 -1,-4 -1,-6 8,2 12,2 18,5z"/>
    <path id="path17789" class="fil5" d="M3614 927c-7,-7 -16,2 -17,-8 7,2 15,2 17,8z"/>
    <path id="path17791" class="fil5" d="M3628 679c2,4 -6,11 -7,16 -4,-6 6,-10 7,-16z"/>
    <path id="path17793" class="fil5" d="M3611 871c-6,3 -16,-2 -17,-8 7,2 17,0 17,8z"/>
    <path id="path17795" class="fil5" d="M3578 1152c1,-3 2,1 1,3 -1,3 -2,-1 -1,-3z"/>
    <path id="path17797" class="fil5" d="M3616 690c3,1 0,3 0,5 -3,-1 0,-3 0,-5z"/>
    <path id="path17799" class="fil5" d="M3586 1061c-6,2 -12,-5 -17,-9 -10,-8 -19,-18 -25,-31 6,-5 2,-11 3,-19 2,-2 1,9 2,14 3,13 15,27 24,35 5,4 11,5 13,10l0 0zm-36 -35l0 0c0,0 0,0 0,0z"/>
    <path id="path17801" class="fil5" d="M3616 679c4,1 -2,2 -2,4 -5,-2 2,-3 2,-4z"/>
    <path id="path17803" class="fil5" d="M3583 1039c0,2 0,1 -1,-1 0,0 1,1 1,1z"/>
    <path id="path17805" class="fil5" d="M3607 732c3,0 2,9 -2,6 1,-1 2,-3 2,-6z"/>
    <path id="path17807" class="fil5" d="M3581 1036c1,1 1,2 2,2 -1,-1 -1,-2 -2,-2z"/>
    <path id="path17809" class="fil5" d="M3601 752c6,1 -3,10 -1,16 -6,-3 3,-9 1,-16z"/>
    <path id="path17811" class="fil5" d="M3594 780c1,2 0,16 -6,16 2,-5 1,-14 6,-16z"/>
    <path id="path17813" class="fil5" d="M3596 700c1,1 2,2 4,2 -1,5 -4,0 -5,3 -2,-1 1,-2 0,-4z"/>
    <path id="path17815" class="fil5" d="M3572 1019c0,1 0,2 0,3 0,-1 0,-2 0,-3z"/>
    <path id="path17817" class="fil5" d="M3586 820c0,4 -4,-9 -3,-14 5,1 1,10 3,14z"/>
    <path id="path17819" class="fil5" d="M3593 683c-9,5 -5,10 0,0l0 0zm8 -8c-6,9 -11,20 -18,29 -5,-3 8,-13 -2,-12 6,-6 9,-15 20,-16z"/>
    <path id="path17821" class="fil5" d="M3593 683c-5,10 -9,5 0,0l0 0z"/>
    <path id="path17823" class="fil5" d="M3566 872c2,3 -3,12 -4,16 -5,-1 2,-13 4,-16z"/>
    <path id="path17825" class="fil5" d="M3578 699c2,2 3,4 1,6 -2,-1 -1,-4 -1,-6z"/>
    <path id="path17827" class="fil5" d="M3550 1026l0 0c0,0 0,0 0,0z"/>
    <path id="path17829" class="fil5" d="M3551 977c1,-3 2,1 1,3 -1,3 -2,-1 -1,-3z"/>
    <path id="path17831" class="fil5" d="M3556 902c4,2 -2,7 -2,9 -3,-1 3,-5 2,-9z"/>
    <path id="path17833" class="fil5" d="M3526 1018c0,1 0,2 0,3 -1,-1 -1,-2 0,-3z"/>
    <path id="path17835" class="fil5" d="M3503 996c1,-3 2,1 1,3 -1,3 -2,-1 -1,-3z"/>
    <path id="path17837" class="fil5" d="M3509 924c0,1 0,2 0,3 -1,0 -2,0 -3,0 0,-1 0,-2 0,-3 1,0 2,0 3,0z"/>
   </g>
   <path class="fil2" d="M3586 1363l62 5 -197 2294c-24,20 -45,20 -62,-5l197 -2294z"/>
  </g>
 </g>
</svg>
